<svg width="20" height="20" viewBox="0 0 20 20" fill="none" xmlns="http://www.w3.org/2000/svg">
<path d="M4.44444 16.6667H7.77778V12.2222H8.88889V9.44444C8.88889 8.83333 8.67148 8.31037 8.23667 7.87556C7.80185 7.44074 7.27852 7.22296 6.66667 7.22222H5.55556C4.94444 7.22222 4.42148 7.44 3.98667 7.87556C3.55185 8.31111 3.33407 8.83407 3.33333 9.44444V12.2222H4.44444V16.6667ZM6.11111 6.11111C6.5 6.11111 6.82889 5.97667 7.09778 5.70778C7.36667 5.43889 7.50074 5.11037 7.5 4.72222C7.49926 4.33407 7.36481 4.00519 7.09667 3.73556C6.82852 3.46593 6.5 3.33185 6.11111 3.33333C5.72222 3.33481 5.39333 3.46926 5.12444 3.73667C4.85556 4.00407 4.72148 4.33259 4.72222 4.72222C4.72296 5.11185 4.85741 5.44074 5.12556 5.70889C5.3937 5.97704 5.72222 6.11111 6.11111 6.11111ZM11.1111 8.88889H16.6667L13.8889 4.44444L11.1111 8.88889ZM13.8889 15.5556L16.6667 11.1111H11.1111L13.8889 15.5556ZM2.22222 20C1.61111 20 1.08815 19.7826 0.653333 19.3478C0.218519 18.913 0.000740741 18.3896 0 17.7778V2.22222C0 1.61111 0.217778 1.08815 0.653333 0.653333C1.08889 0.218519 1.61185 0.000740741 2.22222 0H17.7778C18.3889 0 18.9122 0.217778 19.3478 0.653333C19.7833 1.08889 20.0007 1.61185 20 2.22222V17.7778C20 18.3889 19.7826 18.9122 19.3478 19.3478C18.913 19.7833 18.3896 20.0007 17.7778 20H2.22222ZM2.22222 17.7778H17.7778V2.22222H2.22222V17.7778Z" fill="#9D7C47"/>
</svg>
