<svg width="13" height="12" viewBox="0 0 13 12" fill="none" xmlns="http://www.w3.org/2000/svg">
<path d="M12.4517 5.28612H1.8669L5.91999 1.30797C6.13222 1.09965 6.14044 0.75356 5.93829 0.53486C5.73641 0.316433 5.40056 0.307685 5.18806 0.515998L0.559278 5.05949C0.359026 5.26616 0.248383 5.54063 0.248383 5.83287C0.248383 6.12483 0.359026 6.39958 0.568616 6.61526L5.18833 11.1495C5.29099 11.2503 5.42257 11.3004 5.55416 11.3004C5.69423 11.3004 5.8343 11.2435 5.93856 11.1306C6.14071 10.9119 6.13248 10.5661 5.92025 10.3578L1.85021 6.37962H12.4517C12.7445 6.37962 12.9822 6.13468 12.9822 5.83287C12.9822 5.53107 12.7445 5.28612 12.4517 5.28612Z" fill="#9D7C47"/>
</svg>
