<svg width="14" height="12" viewBox="0 0 14 12" fill="none" xmlns="http://www.w3.org/2000/svg">
<g clip-path="url(#clip0_62_119)">
<path d="M13.1799 5.45446H2.59517L6.64826 1.4763C6.86049 1.26799 6.86871 0.921895 6.66657 0.703195C6.46468 0.484768 6.12883 0.47602 5.91633 0.684333L1.28755 5.22783C1.0873 5.43449 0.976654 5.70897 0.976654 6.00121C0.976654 6.29317 1.0873 6.56791 1.29689 6.7836L5.9166 11.3178C6.01926 11.4186 6.15084 11.4687 6.28243 11.4687C6.4225 11.4687 6.56257 11.4118 6.66683 11.299C6.86898 11.0803 6.86075 10.7344 6.64852 10.5261L2.57848 6.54796H13.1799C13.4728 6.54796 13.7105 6.30301 13.7105 6.00121C13.7105 5.6994 13.4728 5.45446 13.1799 5.45446Z" fill="#9D7C47"/>
</g>
<defs>
<clipPath id="clip0_62_119">
<rect width="13.2192" height="11.664" fill="white" transform="matrix(-1 0 0 1 13.9533 0.168457)"/>
</clipPath>
</defs>
</svg>
