<svg width="16" height="16" viewBox="0 0 16 16" fill="none" xmlns="http://www.w3.org/2000/svg">
<path d="M13.0167 1.63037H12.6833V0.815185C12.6833 0.31968 12.3333 0 11.8333 0C11.3333 0 10.9833 0.31968 10.9833 0.815185V1.63037H5.45V0.815185C5.45 0.31968 5.11667 0 4.6 0C4.08333 0 3.75 0.31968 3.75 0.815185V1.63037H2.98333C1.36667 1.63037 0 2.94106 0 4.49151V13.1389C0 14.6893 1.36667 16 2.98333 16H13.0167C14.6333 16 16 14.6893 16 13.1389V4.49151C16 2.94106 14.6333 1.63037 13.0167 1.63037ZM2.98333 3.26074H13.0167C13.7 3.26074 14.3 3.83616 14.3 4.49151V5.62637H1.7V4.49151C1.7 3.83616 2.3 3.26074 2.98333 3.26074ZM13.0167 14.3536H2.98333C2.3 14.3536 1.7 13.7782 1.7 13.1229V7.25674H14.2833V13.1229C14.3 13.7782 13.7 14.3536 13.0167 14.3536Z" fill="#53504E" fill-opacity="0.7"/>
</svg>
