<svg width="16" height="22" viewBox="0 0 16 22" fill="none" xmlns="http://www.w3.org/2000/svg">
<path fill-rule="evenodd" clip-rule="evenodd" d="M6.45605 0.641665C6.84249 0.254005 7.35979 0.0257783 7.90581 0.00205387C8.45183 -0.0216706 8.98687 0.160831 9.40528 0.513521L9.54395 0.641665L11.3205 2.42253L11.5105 2.15748L11.8544 1.66134L12.0782 1.324L12.3032 0.963666C12.6395 0.437949 13.0424 -0.0625767 13.751 0.133472C13.9595 0.191323 14.1461 0.309958 14.2872 0.474333C14.4283 0.638708 14.5176 0.841419 14.5438 1.05676L14.5514 1.18929V7.76074C14.5518 9.269 14.0349 10.7315 13.0875 11.9027C12.1402 13.0739 10.8199 13.8827 9.3485 14.1931L9.0919 14.2413V18.6223C10.1311 18.4454 11.1126 18.02 11.9533 17.3821C12.7939 16.7442 13.469 15.9126 13.9214 14.9576C13.9829 14.8276 14.0693 14.7111 14.1757 14.6147C14.2821 14.5182 14.4064 14.4437 14.5416 14.3955C14.6767 14.3472 14.8199 14.3261 14.9631 14.3334C15.1064 14.3407 15.2468 14.3762 15.3763 14.4379C15.5059 14.4996 15.6221 14.5863 15.7182 14.693C15.8144 14.7998 15.8886 14.9244 15.9367 15.06C15.9848 15.1955 16.0059 15.3392 15.9986 15.4829C15.9913 15.6265 15.956 15.7674 15.8944 15.8973C15.2657 17.2278 14.3129 18.378 13.124 19.2415C11.935 20.105 10.5483 20.6541 9.0919 20.8379C9.0919 21.4579 8.6475 22 8 22C7.3525 22 6.9081 21.4579 6.9081 20.8369C5.45192 20.6532 4.06534 20.1045 2.87642 19.2413C1.68749 18.3782 0.73454 17.2285 0.105562 15.8984C-0.0186724 15.636 -0.0338802 15.3348 0.0632836 15.0611C0.160447 14.7874 0.362024 14.5636 0.623668 14.439C0.885313 14.3144 1.18559 14.2991 1.45845 14.3966C1.73131 14.494 1.95439 14.6962 2.07863 14.9587C2.51054 15.8707 3.14585 16.6709 3.93539 17.2972C4.72493 17.9236 5.64754 18.3593 6.63185 18.5708L6.9081 18.6234V14.2424C5.42703 13.9913 4.07696 13.2373 3.08404 12.1068C2.09113 10.9762 1.51567 9.53777 1.45406 8.03236L1.4486 7.76074V1.18929C1.44853 0.949719 1.52676 0.716735 1.67133 0.526034C1.81589 0.335334 2.0188 0.197436 2.24896 0.133472C2.90083 -0.0472433 3.29609 0.365663 3.6182 0.844285L3.99491 1.43791L4.14559 1.66134L4.48954 2.15748L4.67953 2.42253L6.45605 0.641665ZM12.3676 4.65354C11.8085 5.35121 11.1545 6.08174 10.4732 6.65126C9.82347 7.1945 8.95214 7.76074 8 7.76074C7.04786 7.76074 6.17653 7.1945 5.52685 6.65126C4.95906 6.17702 4.41092 5.59107 3.91957 5.00511L3.6324 4.65464V7.76074C3.63238 8.90369 4.07766 10.0014 4.87324 10.8196C5.66881 11.6379 6.75168 12.1118 7.89078 12.1404C9.02988 12.169 10.135 11.7499 10.9704 10.9726C11.8057 10.1953 12.3052 9.12131 12.3621 7.97979L12.3676 7.76074V4.65354ZM8 2.19034L6.06297 4.1333L6.48335 4.5933C6.92011 5.05768 7.47807 5.57026 8 5.57026C8.52193 5.57026 9.08098 5.05768 9.51774 4.5933L9.93703 4.1333L8 2.19034Z" fill="#9D7C47"/>
</svg>
