<svg width="45" height="36" viewBox="0 0 45 36" fill="none" xmlns="http://www.w3.org/2000/svg">
<path d="M6.75 9.3375V4.5C6.75 2.025 8.775 0 11.25 0H33.75C36.225 0 38.25 2.025 38.25 4.5V9.36C35.64 10.2825 33.75 12.7575 33.75 15.6825V20.25H11.25V15.66C11.25 12.7575 9.36 10.26 6.75 9.3375ZM40.5 11.25C38.025 11.25 36 13.275 36 15.75V22.5H9V15.75C9 14.5565 8.52589 13.4119 7.68198 12.568C6.83807 11.7241 5.69347 11.25 4.5 11.25C3.30653 11.25 2.16193 11.7241 1.31802 12.568C0.474106 13.4119 0 14.5565 0 15.75V27C0 29.475 2.025 31.5 4.5 31.5V36H9V31.5H36V36H40.5V31.5C42.975 31.5 45 29.475 45 27V15.75C45 13.275 42.975 11.25 40.5 11.25Z" fill="url(#paint0_linear_62_1284)"/>
<defs>
<linearGradient id="paint0_linear_62_1284" x1="0" y1="18" x2="45" y2="18" gradientUnits="userSpaceOnUse">
<stop stop-color="#9D7C47"/>
<stop offset="1" stop-color="#372B19"/>
</linearGradient>
</defs>
</svg>
