<svg width="20" height="20" viewBox="0 0 20 20" fill="none" xmlns="http://www.w3.org/2000/svg">
<path d="M6.91042 10.5896L11.0771 14.7563C11.1545 14.8337 11.2464 14.8951 11.3476 14.937C11.4487 14.9789 11.5572 15.0005 11.6667 15.0005C11.7762 15.0005 11.8846 14.9789 11.9857 14.937C12.0869 14.8951 12.1788 14.8337 12.2563 14.7563C12.3337 14.6788 12.3951 14.5869 12.437 14.4857C12.4789 14.3846 12.5005 14.2762 12.5005 14.1667C12.5005 14.0572 12.4789 13.9487 12.437 13.8476C12.3951 13.7464 12.3337 13.6545 12.2563 13.5771L9.51146 10.8333H19.1667C19.3877 10.8333 19.5996 10.7455 19.7559 10.5893C19.9122 10.433 20 10.221 20 10C20 9.77899 19.9122 9.56703 19.7559 9.41074C19.5996 9.25446 19.3877 9.16667 19.1667 9.16667H9.51146L12.2563 6.42292C12.4126 6.26655 12.5005 6.05447 12.5005 5.83333C12.5005 5.6122 12.4126 5.40012 12.2563 5.24375C12.0999 5.08738 11.8878 4.99954 11.6667 4.99954C11.4455 4.99954 11.2334 5.08738 11.0771 5.24375L6.91042 9.41042C6.83294 9.48781 6.77147 9.57972 6.72953 9.68088C6.6876 9.78205 6.66601 9.89049 6.66601 10C6.66601 10.1095 6.6876 10.218 6.72953 10.3191C6.77147 10.4203 6.83294 10.5122 6.91042 10.5896ZM0.833334 0H7.5C7.72101 0 7.93298 0.0877975 8.08926 0.244078C8.24554 0.400358 8.33333 0.61232 8.33333 0.833333C8.33333 1.05435 8.24554 1.26631 8.08926 1.42259C7.93298 1.57887 7.72101 1.66667 7.5 1.66667H1.66667V18.3333H7.5C7.72101 18.3333 7.93298 18.4211 8.08926 18.5774C8.24554 18.7337 8.33333 18.9457 8.33333 19.1667C8.33333 19.3877 8.24554 19.5996 8.08926 19.7559C7.93298 19.9122 7.72101 20 7.5 20H0.833334C0.61232 20 0.400358 19.9122 0.244078 19.7559C0.0877972 19.5996 0 19.3877 0 19.1667V0.833333C0 0.61232 0.0877972 0.400358 0.244078 0.244078C0.400358 0.0877975 0.61232 0 0.833334 0Z" fill="#9D7C47"/>
</svg>
