<svg width="20" height="20" viewBox="0 0 20 20" fill="none" xmlns="http://www.w3.org/2000/svg">
<path d="M13.0896 10.5896L8.92292 14.7563C8.84549 14.8337 8.75357 14.8951 8.65241 14.937C8.55125 14.9789 8.44283 15.0005 8.33333 15.0005C8.22384 15.0005 8.11541 14.9789 8.01425 14.937C7.91309 14.8951 7.82117 14.8337 7.74375 14.7563C7.66632 14.6788 7.60491 14.5869 7.56301 14.4857C7.5211 14.3846 7.49954 14.2762 7.49954 14.1667C7.49954 14.0572 7.5211 13.9487 7.56301 13.8476C7.60491 13.7464 7.66632 13.6545 7.74375 13.5771L10.4885 10.8333H0.833333C0.61232 10.8333 0.400358 10.7455 0.244078 10.5893C0.0877973 10.433 0 10.221 0 10C0 9.77899 0.0877973 9.56703 0.244078 9.41074C0.400358 9.25446 0.61232 9.16667 0.833333 9.16667H10.4885L7.74375 6.42292C7.58738 6.26655 7.49954 6.05447 7.49954 5.83333C7.49954 5.6122 7.58738 5.40012 7.74375 5.24375C7.90012 5.08738 8.1122 4.99954 8.33333 4.99954C8.55447 4.99954 8.76655 5.08738 8.92292 5.24375L13.0896 9.41042C13.1671 9.48781 13.2285 9.57972 13.2705 9.68088C13.3124 9.78205 13.334 9.89049 13.334 10C13.334 10.1095 13.3124 10.218 13.2705 10.3191C13.2285 10.4203 13.1671 10.5122 13.0896 10.5896ZM19.1667 0H12.5C12.279 0 12.067 0.0877975 11.9107 0.244078C11.7545 0.400358 11.6667 0.61232 11.6667 0.833333C11.6667 1.05435 11.7545 1.26631 11.9107 1.42259C12.067 1.57887 12.279 1.66667 12.5 1.66667H18.3333V18.3333H12.5C12.279 18.3333 12.067 18.4211 11.9107 18.5774C11.7545 18.7337 11.6667 18.9457 11.6667 19.1667C11.6667 19.3877 11.7545 19.5996 11.9107 19.7559C12.067 19.9122 12.279 20 12.5 20H19.1667C19.3877 20 19.5996 19.9122 19.7559 19.7559C19.9122 19.5996 20 19.3877 20 19.1667V0.833333C20 0.61232 19.9122 0.400358 19.7559 0.244078C19.5996 0.0877975 19.3877 0 19.1667 0Z" fill="#9D7C47"/>
</svg>
