<svg width="20" height="13" viewBox="0 0 20 13" fill="none" xmlns="http://www.w3.org/2000/svg">
<path d="M13.8296 6.30466C15.4071 6.30466 16.7643 4.91653 16.7643 3.10886C16.7643 1.32302 15.4 0 13.8296 0C12.2596 0 10.895 1.35188 10.895 3.12329C10.895 4.91653 12.2521 6.30466 13.8296 6.30466ZM5.385 6.47114C6.74964 6.47114 7.93857 5.25617 7.93857 3.68713C7.93857 2.13288 6.74214 0.983025 5.385 0.983025C4.02071 0.983025 2.81714 2.16174 2.82464 3.70192C2.82464 5.25617 4.01321 6.47114 5.38536 6.47114M1.29143 13H6.86714C6.10429 11.9082 7.03607 9.71023 8.61357 8.51005C7.79929 7.97507 6.74964 7.57735 5.37786 7.57735C2.06893 7.577 0 9.98441 0 11.9874C0 12.6385 0.366786 13 1.29143 13ZM9.215 13H18.4371C19.5889 13 20 12.6744 20 12.0381C20 10.1727 17.63 7.59882 13.8225 7.59882C10.0221 7.59882 7.65214 10.1727 7.65214 12.0384C7.65214 12.6744 8.06286 13 9.215 13Z" fill="#9D7C47"/>
</svg>
