<svg width="16" height="16" viewBox="0 0 16 16" fill="none" xmlns="http://www.w3.org/2000/svg">
<path d="M3.43809 14.1072V8.37601H5.22589C5.3044 8.37601 5.38548 8.38395 5.46914 8.39983C5.5528 8.41571 5.63388 8.43783 5.71238 8.46618L10.8876 10.3462C11.1431 10.4387 11.354 10.5907 11.5202 10.8022C11.6858 11.0138 11.7686 11.2517 11.7686 11.516C11.7686 11.6719 11.717 11.7984 11.6139 11.8954C11.5107 11.9923 11.3838 12.0405 11.2331 12.04H10.1999C9.90771 12.04 9.62263 12.023 9.34472 11.9889C9.06681 11.9549 8.79434 11.8908 8.52732 11.7967L6.98705 11.2488L6.74037 11.8818L8.42847 12.456C8.69893 12.5467 8.97856 12.6091 9.26736 12.6431C9.55616 12.6777 9.84869 12.695 10.1449 12.695H14.5784C14.9709 12.695 15.3061 12.8226 15.584 13.0778C15.8619 13.333 16.0006 13.6526 16 14.0366L9.9885 16L3.43809 14.1072ZM0 15.3126V8.37601H2.57857V15.3126H0ZM10.7268 8.56912L5.80177 6.77329H3.0238C3.07995 5.85396 3.43236 5.09117 4.08101 4.4849C4.72966 3.87863 5.5124 3.51368 6.42922 3.39005V0.850702H5.13994V0H9.43755C9.7699 0 10.0959 0.0425352 10.4157 0.127605C10.7354 0.212676 11.0357 0.340848 11.3165 0.512123L10.6864 1.13569C10.4859 1.04381 10.2827 0.973486 10.077 0.924713C9.87304 0.875372 9.66045 0.850702 9.43927 0.850702H7.29046V3.39005C8.26745 3.51198 9.08457 3.93194 9.74182 4.64994C10.3996 5.36849 10.7286 6.21806 10.7286 7.19864L10.7268 8.56912ZM13.8512 5.62824C13.4885 5.62824 13.1831 5.50518 12.9349 5.25904C12.6868 5.0129 12.5625 4.71062 12.5619 4.35219C12.5619 4.07997 12.659 3.7411 12.8533 3.3356C13.047 2.9301 13.3796 2.38537 13.8512 1.7014C14.3228 2.38537 14.6557 2.92755 14.85 3.32795C15.0442 3.72834 15.141 4.06976 15.1405 4.35219C15.1405 4.71062 15.0161 5.0129 14.7674 5.25904C14.5193 5.50518 14.2139 5.62824 13.8512 5.62824Z" fill="#9D7C47"/>
</svg>
