<svg width="14" height="8" viewBox="0 0 14 8" fill="none" xmlns="http://www.w3.org/2000/svg">
<path fill-rule="evenodd" clip-rule="evenodd" d="M11.9 0C12.457 0 12.9911 0.210714 13.3849 0.585787C13.7788 0.960859 14 1.46957 14 2V6C14 6.53043 13.7788 7.03914 13.3849 7.41421C12.9911 7.78929 12.457 8 11.9 8H2.1C1.54305 8 1.0089 7.78929 0.615076 7.41421C0.221249 7.03914 0 6.53043 0 6V2C0 1.46957 0.221249 0.960859 0.615076 0.585787C1.0089 0.210714 1.54305 0 2.1 0H11.9ZM11.9 5.33333H2.1C1.92855 5.33335 1.76306 5.3933 1.63494 5.50181C1.50682 5.61032 1.42496 5.75983 1.4049 5.922L1.4 6V6.66667H12.6V6C12.6 5.83671 12.537 5.67911 12.4231 5.55709C12.3092 5.43506 12.1522 5.3571 11.9819 5.338L11.9 5.33333ZM11.2 2C11.0143 2 10.8363 2.07024 10.705 2.19526C10.5737 2.32029 10.5 2.48986 10.5 2.66667C10.5 2.84348 10.5737 3.01305 10.705 3.13807C10.8363 3.2631 11.0143 3.33333 11.2 3.33333C11.3857 3.33333 11.5637 3.2631 11.695 3.13807C11.8263 3.01305 11.9 2.84348 11.9 2.66667C11.9 2.48986 11.8263 2.32029 11.695 2.19526C11.5637 2.07024 11.3857 2 11.2 2Z" fill="#9D7C47"/>
</svg>
