<svg width="16" height="13" viewBox="0 0 16 13" fill="none" xmlns="http://www.w3.org/2000/svg">
<path d="M14.5455 10.1111H1.45455V1.44444H14.5455M14.5455 0H1.45455C1.06878 0 0.698807 0.152182 0.426027 0.423068C0.153246 0.693954 0 1.06135 0 1.44444V10.1111C0 10.4942 0.153246 10.8616 0.426027 11.1325C0.698807 11.4034 1.06878 11.5556 1.45455 11.5556H5.09091V13H10.9091V11.5556H14.5455C14.9312 11.5556 15.3012 11.4034 15.574 11.1325C15.8468 10.8616 16 10.4942 16 10.1111V1.44444C16 1.06135 15.8468 0.693954 15.574 0.423068C15.3012 0.152182 14.9312 0 14.5455 0Z" fill="#9D7C47"/>
</svg>
