<svg width="28" height="28" viewBox="0 0 28 28" fill="none" xmlns="http://www.w3.org/2000/svg">
<path d="M9.66667 9.66667L18.3333 18.3333M18.3333 9.66667L9.66667 18.3333M14 27C12.2928 27 10.6023 26.6637 9.02512 26.0104C7.44788 25.3571 6.01477 24.3995 4.80761 23.1924C3.60045 21.9852 2.64288 20.5521 1.98957 18.9749C1.33626 17.3977 1 15.7072 1 14C1 12.2928 1.33626 10.6023 1.98957 9.02512C2.64288 7.44788 3.60045 6.01477 4.80761 4.80761C6.01477 3.60045 7.44788 2.64288 9.02512 1.98957C10.6023 1.33625 12.2928 1 14 1C17.4478 1 20.7544 2.36964 23.1924 4.80761C25.6304 7.24558 27 10.5522 27 14C27 17.4478 25.6304 20.7544 23.1924 23.1924C20.7544 25.6304 17.4478 27 14 27Z" stroke="white" stroke-width="2" stroke-linecap="round"/>
</svg>
