<svg width="15" height="10" viewBox="0 0 15 10" fill="none" xmlns="http://www.w3.org/2000/svg">
<path d="M10.3722 4.84974C11.5554 4.84974 12.5732 3.78195 12.5732 2.39143C12.5732 1.01771 11.55 0 10.3722 0C9.19473 0 8.17125 1.03991 8.17125 2.40253C8.17125 3.78195 9.18911 4.84974 10.3722 4.84974ZM4.03875 4.9778C5.06223 4.9778 5.95393 4.04321 5.95393 2.83626C5.95393 1.64068 5.05661 0.756173 4.03875 0.756173C3.01554 0.756173 2.11286 1.66288 2.11848 2.84763C2.11848 4.04321 3.00991 4.9778 4.03902 4.9778M0.968571 10H5.15036C4.57821 9.16017 5.27705 7.46941 6.46018 6.54619C5.84946 6.13467 5.06223 5.82873 4.03339 5.82873C1.5517 5.82846 0 7.68031 0 9.22109C0 9.72195 0.275089 10 0.968571 10ZM6.91125 10H13.8279C14.6917 10 15 9.74957 15 9.26007C15 7.82516 13.2225 5.84525 10.3669 5.84525C7.51661 5.84525 5.73911 7.82516 5.73911 9.26034C5.73911 9.74957 6.04714 10 6.91125 10Z" fill="#9D7C47"/>
</svg>
