<svg width="19" height="18" viewBox="0 0 19 18" fill="none" xmlns="http://www.w3.org/2000/svg">
<path d="M9.07713 17.8658C9.20061 17.9531 9.3482 18 9.49951 18C9.65083 18 9.79842 17.9531 9.9219 17.8658L9.5 17.2703L9.92287 17.8658L9.93067 17.8599L9.95113 17.8453L10.0291 17.7889C10.0966 17.7402 10.1924 17.6692 10.3165 17.5758C11.7644 16.4845 13.1311 15.2898 14.4059 14.0011C15.5245 12.8647 16.6615 11.5366 17.5229 10.1277C18.3803 8.72661 19 7.18542 19 5.64033C19 3.80628 18.43 2.37308 17.4215 1.40011C16.4179 0.432974 15.0636 0 13.641 0C11.9603 0 10.4763 0.810488 9.5 2.05979C8.52369 0.810488 7.03877 0 5.35897 0C2.35795 0 0 2.56768 0 5.64033C0 7.18542 0.620667 8.72563 1.47713 10.1277C2.33846 11.5366 3.47554 12.8647 4.5941 14.0021C5.95315 15.3751 7.41644 16.6411 8.97092 17.7889L9.04887 17.8453L9.06933 17.8599L9.07713 17.8658Z" fill="white"/>
</svg>
