<svg width="24" height="21" viewBox="0 0 24 21" fill="none" xmlns="http://www.w3.org/2000/svg">
<path d="M17.5135 0C15.9051 0.000815622 14.3547 0.611167 13.165 1.71193C12.7129 2.12758 12.3208 2.60595 12 3.13292C11.6793 2.60572 11.2871 2.12713 10.835 1.71127C9.64517 0.610747 8.0948 0.000635112 6.48649 0C2.90984 0 0 2.95942 0 6.59702C0 9.05243 0.751135 10.9906 2.51092 13.0786C5.06789 16.1132 11.5395 20.7443 11.8138 20.9403C11.8684 20.9791 11.9334 21 12 21C12.0666 21 12.1316 20.9791 12.1862 20.9403C12.4605 20.7443 18.9321 16.1132 21.4897 13.0786C23.2489 10.9906 24 9.05243 24 6.59702C24 2.95942 21.0902 0 17.5135 0ZM20.9974 12.6498C18.7304 15.3387 13.0969 19.4718 12 20.266C10.9031 19.4718 5.26962 15.3387 3.00324 12.6498C1.35243 10.6911 0.648649 8.8809 0.648649 6.59702C0.648649 3.32292 3.26789 0.659702 6.48649 0.659702C7.93103 0.659702 9.32108 1.20659 10.3991 2.2001C10.94 2.69755 11.3844 3.29365 11.7094 3.95755C11.8197 4.18185 12.1803 4.18185 12.2906 3.95755C12.6157 3.29388 13.0601 2.69802 13.6009 2.20076C14.6712 1.21004 16.0662 0.660598 17.5135 0.659702C20.7321 0.659702 23.3514 3.32292 23.3514 6.59702C23.3514 8.8809 22.6476 10.6911 20.9974 12.6498Z" fill="white"/>
</svg>
