<svg version="1.1" id="Layer_1" xmlns="http://www.w3.org/2000/svg" xmlns:xlink="http://www.w3.org/1999/xlink" x="0px" y="0px"
	 width="100%" viewBox="0 0 512 573" enable-background="new 0 0 512 573" xml:space="preserve">
<path fill="#201C1D" opacity="1.000000" stroke="none" 
	d="
M238.000000,1.000004 
	C239.066666,1.000000 240.133347,1.000000 241.606079,1.468627 
	C242.017319,49.747025 242.023773,97.556793 242.027313,145.366562 
	C242.030426,187.179367 242.020859,228.992157 242.041489,270.804962 
	C242.044632,277.175049 242.380600,277.432220 248.627029,276.131592 
	C262.476074,273.247925 276.344788,270.449127 290.149963,267.367035 
	C302.795349,264.543854 301.970123,266.509613 301.971497,252.594589 
	C301.976929,197.454987 301.946808,142.315338 302.061005,87.175972 
	C302.066895,84.332550 302.426910,80.793694 304.077179,78.758560 
	C319.011597,60.341206 337.131348,45.558868 357.427216,33.403244 
	C361.531830,30.944891 362.757263,31.650702 362.984558,36.290169 
	C363.082306,38.284794 363.026276,40.287350 363.026367,42.286304 
	C363.029266,109.753181 363.024963,177.220062 363.041199,244.686935 
	C363.042725,251.034164 363.857788,251.781647 369.421082,250.597687 
	C417.283508,240.411560 465.141022,230.202316 513.000000,220.000000 
	C513.000000,265.687561 513.000000,311.375122 512.715027,357.747467 
	C511.837036,360.125580 511.189423,361.801971 510.659637,363.514862 
	C506.436096,377.170502 502.213165,390.826416 498.041626,404.498016 
	C496.950287,408.074768 494.640411,409.821167 490.971497,410.583099 
	C471.417114,414.643829 451.903412,418.900024 432.368256,423.054016 
	C391.500641,431.744080 350.622528,440.384888 309.763519,449.115356 
	C302.447693,450.678528 301.983673,450.474640 301.980743,443.064301 
	C301.966919,408.080200 301.974609,373.096130 301.969818,338.112030 
	C301.969543,336.279938 301.956390,334.446777 301.894470,332.615967 
	C301.777710,329.162506 300.097839,327.912201 296.654175,328.657440 
	C280.710144,332.107910 264.776978,335.620575 248.777344,338.795471 
	C243.446457,339.853302 241.867142,342.539856 241.932892,347.770233 
	C242.177917,367.258270 241.772079,386.756226 242.150406,406.240021 
	C242.307495,414.329010 240.081589,421.214264 235.605759,427.739502 
	C226.190140,441.466461 216.786942,455.206390 207.656525,469.123322 
	C198.686615,482.795532 186.335388,491.280060 170.406921,494.664124 
	C133.608490,502.482056 96.799255,510.249298 60.011272,518.116028 
	C40.322792,522.326233 20.669294,526.700073 1.000000,531.000000 
	C1.000000,525.977905 1.000000,520.955811 1.286563,515.258728 
	C2.341385,512.422241 3.190395,510.285553 3.864566,508.095093 
	C7.729649,495.536499 11.502340,482.949188 15.422721,470.408051 
	C16.564219,466.756348 18.678522,464.095184 22.878597,463.218689 
	C48.466492,457.878876 74.019379,452.371521 99.588280,446.940460 
	C124.507744,441.647369 149.419632,436.317017 174.366196,431.154602 
	C179.019043,430.191742 181.110825,428.152588 181.058380,423.098419 
	C180.838791,401.936279 180.990662,380.770477 180.950348,359.606140 
	C180.939682,354.007446 180.252975,353.464691 174.773010,354.608978 
	C161.080383,357.468140 147.402634,360.398773 133.720047,363.306000 
	C100.980995,370.262207 68.249146,377.252563 35.497803,384.150391 
	C29.743910,385.362183 29.052351,384.507111 29.729067,378.692688 
	C31.764193,361.206726 36.602360,344.480438 42.644264,327.985809 
	C44.966423,321.646240 48.460297,318.480774 55.142731,317.111176 
	C94.123802,309.121704 133.021042,300.723480 171.951385,292.485992 
	C180.947998,290.582397 180.970734,290.623169 180.971313,281.522369 
	C180.976044,207.363510 181.021378,133.204544 180.879944,59.045959 
	C180.869644,53.651543 182.377609,49.395893 185.951950,45.520226 
	C200.237106,30.030830 215.792831,16.076397 233.848206,5.044212 
	C235.455688,4.062010 236.626434,2.365027 238.000000,1.000004 
z"/>
<path fill="#000000" opacity="1.000000" stroke="none" 
	d="
M237.531342,1.000004 
	C236.626434,2.365027 235.455688,4.062010 233.848206,5.044212 
	C215.792831,16.076397 200.237106,30.030830 185.951950,45.520226 
	C182.377609,49.395893 180.869644,53.651543 180.879944,59.045959 
	C181.021378,133.204544 180.976044,207.363510 180.971313,281.522369 
	C180.970734,290.623169 180.947998,290.582397 171.951385,292.485992 
	C133.021042,300.723480 94.123802,309.121704 55.142731,317.111176 
	C48.460297,318.480774 44.966423,321.646240 42.644264,327.985809 
	C36.602360,344.480438 31.764193,361.206726 29.729067,378.692688 
	C29.052351,384.507111 29.743910,385.362183 35.497803,384.150391 
	C68.249146,377.252563 100.980995,370.262207 133.720047,363.306000 
	C147.402634,360.398773 161.080383,357.468140 174.773010,354.608978 
	C180.252975,353.464691 180.939682,354.007446 180.950348,359.606140 
	C180.990662,380.770477 180.838791,401.936279 181.058380,423.098419 
	C181.110825,428.152588 179.019043,430.191742 174.366196,431.154602 
	C149.419632,436.317017 124.507744,441.647369 99.588280,446.940460 
	C74.019379,452.371521 48.466492,457.878876 22.878597,463.218689 
	C18.678522,464.095184 16.564219,466.756348 15.422721,470.408051 
	C11.502340,482.949188 7.729649,495.536499 3.864566,508.095093 
	C3.190395,510.285553 2.341385,512.422241 1.286563,514.791870 
	C1.000000,343.766479 1.000000,172.532990 1.000000,1.000000 
	C79.687309,1.000000 158.375000,1.000000 237.531342,1.000004 
z"/>
<path fill="#000000" opacity="1.000000" stroke="none" 
	d="
M513.000000,219.531342 
	C465.141022,230.202316 417.283508,240.411560 369.421082,250.597687 
	C363.857788,251.781647 363.042725,251.034164 363.041199,244.686935 
	C363.024963,177.220062 363.029266,109.753181 363.026367,42.286304 
	C363.026276,40.287350 363.082306,38.284794 362.984558,36.290169 
	C362.757263,31.650702 361.531830,30.944891 357.427216,33.403244 
	C337.131348,45.558868 319.011597,60.341206 304.077179,78.758560 
	C302.426910,80.793694 302.066895,84.332550 302.061005,87.175972 
	C301.946808,142.315338 301.976929,197.454987 301.971497,252.594589 
	C301.970123,266.509613 302.795349,264.543854 290.149963,267.367035 
	C276.344788,270.449127 262.476074,273.247925 248.627029,276.131592 
	C242.380600,277.432220 242.044632,277.175049 242.041489,270.804962 
	C242.020859,228.992157 242.030426,187.179367 242.027313,145.366562 
	C242.023773,97.556793 242.017319,49.747025 242.006073,1.468627 
	C332.252625,1.000000 422.505249,1.000000 513.000000,1.000000 
	C513.000000,73.687386 513.000000,146.375031 513.000000,219.531342 
z"/>
<path fill="#000000" opacity="1.000000" stroke="none" 
	d="
M1.000000,531.468628 
	C20.669294,526.700073 40.322792,522.326233 60.011272,518.116028 
	C96.799255,510.249298 133.608490,502.482056 170.406921,494.664124 
	C186.335388,491.280060 198.686615,482.795532 207.656525,469.123322 
	C216.786942,455.206390 226.190140,441.466461 235.605759,427.739502 
	C240.081589,421.214264 242.307495,414.329010 242.150406,406.240021 
	C241.772079,386.756226 242.177917,367.258270 241.932892,347.770233 
	C241.867142,342.539856 243.446457,339.853302 248.777344,338.795471 
	C264.776978,335.620575 280.710144,332.107910 296.654175,328.657440 
	C300.097839,327.912201 301.777710,329.162506 301.894470,332.615967 
	C301.956390,334.446777 301.969543,336.279938 301.969818,338.112030 
	C301.974609,373.096130 301.966919,408.080200 301.980743,443.064301 
	C301.983673,450.474640 302.447693,450.678528 309.763519,449.115356 
	C350.622528,440.384888 391.500641,431.744080 432.368256,423.054016 
	C451.903412,418.900024 471.417114,414.643829 490.971497,410.583099 
	C494.640411,409.821167 496.950287,408.074768 498.041626,404.498016 
	C502.213165,390.826416 506.436096,377.170502 510.659637,363.514862 
	C511.189423,361.801971 511.837036,360.125580 512.715027,358.216125 
	C513.000000,393.687561 513.000000,429.375122 512.638916,465.664856 
	C511.477600,466.488007 510.686432,466.750946 509.876007,466.923828 
	C472.134521,474.976685 434.392761,483.028442 396.647858,491.065308 
	C373.059387,496.087860 349.446838,501.000610 325.899933,506.210480 
	C323.109955,506.827789 319.278046,508.379700 318.279572,510.569946 
	C309.100708,530.704529 303.419464,551.828796 302.000000,574.000000 
	C201.666656,574.000000 101.333305,574.000000 1.000000,574.000000 
	C1.000000,559.901611 1.000000,545.919495 1.000000,531.468628 
z"/>
<path fill="#231F20" opacity="1.000000" stroke="none" 
	d="
M302.428467,574.000000 
	C303.419464,551.828796 309.100708,530.704529 318.279572,510.569946 
	C319.278046,508.379700 323.109955,506.827789 325.899933,506.210480 
	C349.446838,501.000610 373.059387,496.087860 396.647858,491.065308 
	C434.392761,483.028442 472.134521,474.976685 509.876007,466.923828 
	C510.686432,466.750946 511.477600,466.488007 512.638916,466.133545 
	C513.000000,470.689240 513.000000,475.378510 512.705322,480.739746 
	C511.938599,482.447388 511.333191,483.443695 511.014801,484.524536 
	C507.020630,498.084442 503.047119,511.650543 499.115448,525.228699 
	C497.636261,530.337280 494.749725,533.486938 489.100067,534.151550 
	C484.157867,534.732971 479.302826,536.072388 474.416870,537.112610 
	C421.164795,548.450012 367.910461,559.776917 314.675751,571.195312 
	C312.356659,571.692749 310.221069,573.045593 308.000000,574.000000 
	C306.285645,574.000000 304.571289,574.000000 302.428467,574.000000 
z"/>
<path fill="#000000" opacity="1.000000" stroke="none" 
	d="
M308.468658,574.000000 
	C310.221069,573.045593 312.356659,571.692749 314.675751,571.195312 
	C367.910461,559.776917 421.164795,548.450012 474.416870,537.112610 
	C479.302826,536.072388 484.157867,534.732971 489.100067,534.151550 
	C494.749725,533.486938 497.636261,530.337280 499.115448,525.228699 
	C503.047119,511.650543 507.020630,498.084442 511.014801,484.524536 
	C511.333191,483.443695 511.938599,482.447388 512.705322,481.205872 
	C513.000000,511.954437 513.000000,542.908875 513.000000,574.000000 
	C444.979156,574.000000 376.958252,574.000000 308.468658,574.000000 
z"/>
</svg>