<svg width="18" height="18" viewBox="0 0 18 18" fill="none" xmlns="http://www.w3.org/2000/svg">
<path d="M9 15.2222V2.77778M9 15.2222L7.18044 17M9 15.2222L10.8196 17M9 2.77778L7.18044 1M9 2.77778L10.8196 1M3.48533 12.1111L14.5147 5.88889M3.48533 12.1111L1 11.4604M3.48533 12.1111L2.81867 14.5396M14.5147 5.88889L15.1804 3.46044M14.5147 5.88889L17 6.53956M17 11.4604L14.5147 12.1111M14.5147 12.1111L15.1813 14.5396M14.5147 12.1111L3.48533 5.88889M2.81956 3.46044L3.48533 5.88889M3.48533 5.88889L1 6.53956" stroke="#9D7C47" stroke-width="1.5" stroke-linecap="round" stroke-linejoin="round"/>
</svg>
