<svg width="21" height="20" viewBox="0 0 21 20" fill="none" xmlns="http://www.w3.org/2000/svg">
<path d="M0.016674 8.00859C-0.0882454 7.48453 0.33143 6.85566 0.856026 6.85566L6.83641 6.01717L9.56431 0.566981C9.66923 0.357358 9.77415 0.252547 9.98398 0.147736C10.5086 -0.166698 11.1381 0.0429245 11.4529 0.566981L14.0758 6.01717L20.0562 6.85566C20.371 6.85566 20.5808 6.96047 20.6857 7.17009C21.1054 7.58934 21.1054 8.21821 20.6857 8.63745L16.384 12.8299L17.4332 18.8042C17.4332 19.0138 17.4332 19.2234 17.3283 19.433C17.0136 19.9571 16.384 20.1667 15.8595 19.8523L10.5086 17.0224L5.15771 19.8523C5.05279 19.9571 4.84295 19.9571 4.63311 19.9571H4.42327C3.89868 19.8523 3.479 19.3282 3.58392 18.6993L4.63311 12.7251L0.33143 8.53264C0.121592 8.42783 0.016674 8.21821 0.016674 8.00859ZM6.52166 11.677C6.73149 11.8866 6.83641 12.3058 6.83641 12.6203L6.10198 17.0224L10.0889 14.9261C10.1938 14.8213 10.4037 14.8213 10.6135 14.8213V3.39689L8.62004 7.37972C8.51512 7.69415 8.20036 7.90377 7.78068 7.90377L3.37408 8.53264L6.52166 11.677Z" fill="#E8B442"/>
</svg>
