<svg width="24" height="22" viewBox="0 0 24 22" fill="none" xmlns="http://www.w3.org/2000/svg">
<path fill-rule="evenodd" clip-rule="evenodd" d="M19.7927 0.97904C22.3067 2.47137 24.0755 5.50125 23.9975 9.03591C23.9003 13.4481 20.5295 17.3397 14.7828 20.8157C13.9308 21.3314 13.0332 22 12 22C10.986 22 10.05 21.3192 9.21602 20.8144C3.47166 17.3397 0.0996806 13.4469 0.00248122 9.03591C-0.0755183 5.50125 1.69327 2.47259 4.20725 0.97904C6.55924 -0.415513 9.51362 -0.424069 12 1.63537C14.4864 -0.424069 17.4408 -0.416736 19.7927 0.97904ZM18.5844 3.09226C16.9116 2.09982 14.8212 2.13526 13.0116 4.00037C12.8789 4.13599 12.7213 4.2436 12.5477 4.31703C12.3741 4.39046 12.188 4.42825 12 4.42825C11.812 4.42825 11.6259 4.39046 11.4523 4.31703C11.2787 4.2436 11.1211 4.13599 10.9884 4.00037C9.17882 2.13526 7.08843 2.09982 5.41564 3.09226C3.68286 4.12137 2.34367 6.30425 2.40246 8.98336C2.46966 12.0524 4.85045 15.3316 10.4424 18.7147C10.932 19.0117 11.4432 19.3918 12 19.5494C12.5568 19.3918 13.068 19.0117 13.5576 18.7147C19.1496 15.3316 21.5303 12.0536 21.5975 8.98214C21.6575 6.30547 20.3171 4.12137 18.5844 3.09226Z" fill="#9D7C47"/>
</svg>
