<svg width="32" height="30" viewBox="0 0 32 30" fill="none" xmlns="http://www.w3.org/2000/svg">
<path d="M15.2878 29.7763C15.4958 29.9218 15.7443 30 15.9992 30C16.254 30 16.5026 29.9218 16.7106 29.7763L16 28.7838L16.7122 29.7763L16.7253 29.7665L16.7598 29.7422L16.8911 29.6482C17.0049 29.5671 17.1662 29.4487 17.3752 29.293C19.8137 27.4742 22.1156 25.4831 24.2626 23.3352C26.1465 21.4411 28.0615 19.2276 29.5122 16.8795C30.9563 14.5443 32 11.9757 32 9.40055C32 6.34379 31.04 3.95514 29.3415 2.33352C27.6513 0.721623 25.3703 0 22.9744 0C20.1436 0 17.6443 1.35081 16 3.43298C14.3557 1.35081 11.8548 0 9.02564 0C3.97128 0 0 4.27947 0 9.40055C0 11.9757 1.04533 14.5427 2.48779 16.8795C3.93846 19.2276 5.85354 21.4411 7.73744 23.3368C10.0264 25.6251 12.4909 27.7352 15.1089 29.6482L15.2402 29.7422L15.2747 29.7665L15.2878 29.7763Z" fill="white"/>
</svg>
