<svg width="13" height="9" viewBox="0 0 13 9" fill="none" xmlns="http://www.w3.org/2000/svg">
<path d="M0.608623 3.51184V1.82299C0.608623 0.820614 1.42875 0.000488281 2.43112 0.000488281H4.86112C5.3289 0.000488281 5.75415 0.182738 6.07612 0.474339C6.3981 0.182738 6.82335 0.000488281 7.29112 0.000488281H9.72112C10.7235 0.000488281 11.5436 0.820614 11.5436 1.82299V3.51184C11.9142 3.84596 12.1511 4.32589 12.1511 4.86049V8.50549H10.9361V7.29049H1.21612V8.50549H0.00112247V4.86049C0.00112247 4.32589 0.238048 3.84596 0.608623 3.51184ZM4.86112 1.21549H2.43112C2.097 1.21549 1.82362 1.48886 1.82362 1.82299V3.03799H5.46862V1.82299C5.46862 1.48886 5.19525 1.21549 4.86112 1.21549ZM10.3286 1.82299C10.3286 1.48886 10.0552 1.21549 9.72112 1.21549H7.29112C6.957 1.21549 6.68362 1.48886 6.68362 1.82299V3.03799H10.3286V1.82299ZM10.9361 6.07549V4.86049C10.9361 4.52636 10.6627 4.25299 10.3286 4.25299H1.82362C1.4895 4.25299 1.21612 4.52636 1.21612 4.86049V6.07549H10.9361Z" fill="white"/>
</svg>
