<svg width="24" height="22" viewBox="0 0 24 22" fill="none" xmlns="http://www.w3.org/2000/svg">
<path d="M23.6863 21.3179H-0.000244141L-0.000244141 18.9492H1.18408V1.18433C1.18408 0.870223 1.30886 0.568985 1.53096 0.346881C1.75307 0.124777 2.0543 0 2.36841 0L18.949 0C19.2631 0 19.5643 0.124777 19.7864 0.346881C20.0085 0.568985 20.1333 0.870223 20.1333 1.18433V7.10595H22.5019V18.9492H23.6863V21.3179ZM17.7646 18.9492H20.1333V9.4746H13.0273V18.9492H15.396V11.8433H17.7646V18.9492ZM17.7646 7.10595V2.36865H3.55273V18.9492H10.6587V7.10595H17.7646ZM5.92138 9.4746H8.29003V11.8433H5.92138V9.4746ZM5.92138 14.2119H8.29003V16.5806H5.92138V14.2119ZM5.92138 4.7373H8.29003V7.10595H5.92138V4.7373Z" fill="#6C6B6A"/>
</svg>
