<svg width="20" height="24" viewBox="0 0 20 24" fill="none" xmlns="http://www.w3.org/2000/svg">
<path d="M16.9868 1H2.06579C1.47717 1 1 1.48777 1 2.08947V21.7C1 22.3017 1.47717 22.7895 2.06579 22.7895H16.9868C17.5755 22.7895 18.0526 22.3017 18.0526 21.7V2.08947C18.0526 1.48777 17.5755 1 16.9868 1Z" stroke="#9D7C47" stroke-width="2"/>
<path d="M1 7.46875H19" stroke="#9D7C47" stroke-width="2" stroke-linecap="round" stroke-linejoin="round"/>
<path d="M12.25 3.5C12.7332 3.5 13.125 3.89175 13.125 4.375C13.125 4.85825 12.7332 5.25 12.25 5.25C11.7668 5.25 11.375 4.85825 11.375 4.375C11.375 3.89175 11.7668 3.5 12.25 3.5Z" fill="#9D7C47" stroke="#9D7C47" stroke-width="0.5"/>
<path d="M15.625 3.5C16.1082 3.5 16.5 3.89175 16.5 4.375C16.5 4.85825 16.1082 5.25 15.625 5.25C15.1418 5.25 14.75 4.85825 14.75 4.375C14.75 3.89175 15.1418 3.5 15.625 3.5Z" fill="#9D7C47" stroke="#9D7C47" stroke-width="0.5"/>
<path d="M10 19.5625C12.1746 19.5625 13.9375 17.7996 13.9375 15.625C13.9375 13.4504 12.1746 11.6875 10 11.6875C7.82538 11.6875 6.0625 13.4504 6.0625 15.625C6.0625 17.7996 7.82538 19.5625 10 19.5625Z" stroke="#9D7C47" stroke-width="2"/>
</svg>
