<svg width="12" height="18" viewBox="0 0 12 18" fill="none" xmlns="http://www.w3.org/2000/svg">
<path d="M6.0442 9.03795C5.48021 9.03795 4.93931 8.8139 4.5405 8.41509C4.14169 8.01629 3.91765 7.47539 3.91765 6.91139C3.91765 6.34739 4.14169 5.8065 4.5405 5.40769C4.93931 5.00888 5.48021 4.78483 6.0442 4.78483C6.6082 4.78483 7.1491 5.00888 7.54791 5.40769C7.94671 5.8065 8.17076 6.34739 8.17076 6.91139C8.17076 7.19066 8.11576 7.46718 8.00889 7.72519C7.90202 7.9832 7.74538 8.21763 7.54791 8.41509C7.35044 8.61256 7.11601 8.76921 6.858 8.87607C6.6 8.98294 6.32347 9.03795 6.0442 9.03795ZM6.0442 0.957031C4.46501 0.957031 2.9505 1.58436 1.83384 2.70102C0.717176 3.81768 0.0898438 5.3322 0.0898438 6.91139C0.0898438 11.3772 6.0442 17.9695 6.0442 17.9695C6.0442 17.9695 11.9986 11.3772 11.9986 6.91139C11.9986 5.3322 11.3712 3.81768 10.2546 2.70102C9.13791 1.58436 7.6234 0.957031 6.0442 0.957031Z" fill="#9D7C47"/>
</svg>
