<svg width="11" height="14" viewBox="0 0 11 14" fill="none" xmlns="http://www.w3.org/2000/svg">
<path d="M5.49999 0C6.95816 0.00172024 8.3561 0.581735 9.38718 1.61281C10.4183 2.64389 10.9983 4.04184 11 5.5C11.0017 6.69161 10.6125 7.85089 9.89199 8.8C9.89199 8.8 9.74199 8.9975 9.71749 9.026L5.49999 14L1.28049 9.0235C1.25849 8.997 1.10799 8.8 1.10799 8.8L1.10749 8.7985C0.387342 7.84981 -0.00171566 6.69107 -5.72205e-06 5.5C0.00171471 4.04184 0.58173 2.64389 1.61281 1.61281C2.64388 0.581735 4.04183 0.00172024 5.49999 0ZM5.49999 7.5C5.89556 7.5 6.28224 7.3827 6.61113 7.16294C6.94003 6.94318 7.19638 6.63082 7.34775 6.26537C7.49913 5.89991 7.53874 5.49778 7.46156 5.10982C7.38439 4.72186 7.19391 4.36549 6.91421 4.08579C6.6345 3.80608 6.27814 3.6156 5.89017 3.53843C5.50221 3.46126 5.10008 3.50087 4.73463 3.65224C4.36918 3.80362 4.05682 4.05996 3.83706 4.38886C3.61729 4.71776 3.49999 5.10444 3.49999 5.5C3.50066 6.03023 3.71158 6.53855 4.08651 6.91348C4.46144 7.28841 4.96976 7.49934 5.49999 7.5Z" fill="#53504E"/>
</svg>
