<svg width="11" height="12" viewBox="0 0 11 12" fill="none" xmlns="http://www.w3.org/2000/svg">
<path d="M10.5007 8.65142V5.34584C10.5007 4.73708 10.5007 4.4327 10.3356 4.20355C10.2022 4.01844 9.98808 3.92005 9.6063 3.7876C9.52821 4.72455 9.21792 5.6814 8.73061 6.51885C8.16321 7.49396 7.32061 8.36578 6.24064 8.83691C5.61125 9.11148 4.89022 9.11148 4.26083 8.83691C3.18085 8.36578 2.33826 7.49396 1.77085 6.51885C1.40123 5.88364 1.13345 5.17975 0.991593 4.46794C0.768443 4.43508 0.59719 4.45194 0.449412 4.53439C0.39045 4.56728 0.335494 4.60689 0.285641 4.65243C0.000732422 4.91265 0.000732422 5.39649 0.000732422 6.36418V9.23985C0.000732422 9.8486 0.000732422 10.153 0.165896 10.3821C0.331059 10.6113 0.619817 10.7075 1.19733 10.9L1.42108 10.9746L1.42108 10.9746C2.34099 11.2813 2.80094 11.4346 3.27141 11.4355C3.41311 11.4357 3.55465 11.4257 3.69489 11.4054C4.16051 11.338 4.59792 11.1192 5.47276 10.6818C6.14319 10.3466 6.47841 10.179 6.83449 10.1012C6.95946 10.0739 7.08609 10.0549 7.21356 10.0442C7.57676 10.0138 7.94322 10.0749 8.67614 10.1971C9.41892 10.3209 9.79031 10.3828 10.0615 10.2271C10.1536 10.1742 10.2353 10.105 10.3026 10.0228C10.5007 9.78096 10.5007 9.40444 10.5007 8.65142Z" fill="white"/>
<path fill-rule="evenodd" clip-rule="evenodd" d="M5.25073 0.000488281C3.31774 0.000488281 1.75073 1.48922 1.75073 3.32567C1.75073 5.14772 2.86781 7.27389 4.6107 8.03422C5.01699 8.21147 5.48447 8.21147 5.89077 8.03422C7.63365 7.27389 8.75073 5.14772 8.75073 3.32567C8.75073 1.48922 7.18373 0.000488281 5.25073 0.000488281ZM5.25073 4.66716C5.89506 4.66716 6.4174 4.14482 6.4174 3.50049C6.4174 2.85616 5.89506 2.33382 5.25073 2.33382C4.6064 2.33382 4.08407 2.85616 4.08407 3.50049C4.08407 4.14482 4.6064 4.66716 5.25073 4.66716Z" fill="white"/>
</svg>
