<svg width="23" height="14" viewBox="0 0 23 14" fill="none" xmlns="http://www.w3.org/2000/svg">
<path d="M16.1758 0C19.9444 0 23 3.09091 23 6.90332C22.9998 10.7156 19.9443 13.8057 16.1758 13.8057C14.4864 13.8056 12.9416 13.1832 11.75 12.1543C10.5584 13.1832 9.01365 13.8056 7.32422 13.8057C3.55566 13.8057 0.500179 10.7156 0.5 6.90332C0.5 3.09091 3.55555 0 7.32422 0C9.01335 0.000109834 10.5584 0.621855 11.75 1.65039C12.9416 0.621855 14.4866 0.000111238 16.1758 0Z" fill="#ED0006"/>
<path d="M16.1758 0C19.9444 0 23 3.09091 23 6.90332C22.9998 10.7156 19.9443 13.8057 16.1758 13.8057C14.4863 13.8056 12.9416 13.1832 11.75 12.1543C13.2164 10.8882 14.1474 9.00638 14.1475 6.90332C14.1475 4.79982 13.2168 2.91652 11.75 1.65039C12.9416 0.621855 14.4866 0.000111238 16.1758 0Z" fill="#F9A000"/>
<path d="M11.75 1.65039C13.2166 2.91651 14.1475 4.799 14.1475 6.90234C14.1475 9.00545 13.2163 10.8872 11.75 12.1533C10.2837 10.8872 9.35254 9.00543 9.35254 6.90234C9.35255 4.79903 10.2834 2.91651 11.75 1.65039Z" fill="#FF5E00"/>
</svg>
