<svg width="40" height="24" viewBox="0 0 40 24" fill="none" xmlns="http://www.w3.org/2000/svg">
<path d="M40 12C40 18.5846 34.6462 24 28 24C21.4154 24 16 18.5846 16 12C16 5.41538 21.3538 0 27.9385 0C34.6462 0 40 5.41538 40 12Z" fill="#F9B50B"/>
<path d="M23.938 12.0615C23.938 11.2 23.8149 10.3385 23.6918 9.53846H16.3072C16.3687 9.10769 16.4918 8.73846 16.6149 8.24615H23.1995C23.0764 7.81538 22.8918 7.38462 22.7072 6.95385H17.1072C17.2918 6.52308 17.538 6.15385 17.7841 5.66154H22.0303C21.7841 5.23077 21.4764 4.8 21.1072 4.36923H18.7687C19.138 3.93846 19.5072 3.56923 19.9995 3.13846C17.9072 1.16923 15.0764 0 11.938 0C5.4149 0.184615 -0.000488281 5.41538 -0.000488281 12C-0.000488281 18.5846 5.35336 24 11.9995 24C15.138 24 17.9072 22.7692 20.0611 20.8615C20.4918 20.4923 20.861 20.0615 21.2918 19.5692H18.8303C18.5226 19.2 18.2149 18.7692 17.9687 18.3385H22.1534C22.3995 17.9692 22.6457 17.5385 22.8303 17.0462H17.2303C17.0457 16.6769 16.8611 16.2462 16.738 15.7538H23.3226C23.6918 14.6462 23.938 13.4154 23.938 12.0615Z" fill="#C8191C"/>
<path d="M16.2443 15.0785L16.429 13.9708C16.3674 13.9708 16.2443 14.0324 16.1213 14.0324C15.6905 14.0324 15.629 13.7862 15.6905 13.6631L16.0597 11.4477H16.7367L16.9213 10.217H16.3059L16.429 9.47852H15.1367C15.1367 9.47852 14.3982 13.6631 14.3982 14.1554C14.3982 14.8939 14.829 15.2631 15.4443 15.2631C15.8136 15.2631 16.1213 15.1401 16.2443 15.0785Z" fill="white"/>
<path d="M16.6772 13.0417C16.6772 14.8263 17.908 15.2571 18.8926 15.2571C19.8157 15.2571 20.2465 15.0725 20.2465 15.0725L20.4926 13.8417C20.4926 13.8417 19.8157 14.1494 19.1388 14.1494C17.7234 14.1494 17.9696 13.1033 17.9696 13.1033H20.5542C20.5542 13.1033 20.7388 12.3033 20.7388 11.934C20.7388 11.134 20.308 10.0879 18.8926 10.0879C17.6619 10.0263 16.6772 11.4417 16.6772 13.0417ZM18.8926 11.1956C19.5696 11.1956 19.4465 11.9956 19.4465 12.0571H18.0311C18.0926 11.9956 18.2157 11.1956 18.8926 11.1956Z" fill="white"/>
<path d="M26.9545 15.0787L27.2006 13.6633C27.2006 13.6633 26.5852 13.971 26.0929 13.971C25.2314 13.971 24.8006 13.2941 24.8006 12.4941C24.8006 10.9556 25.5391 10.1556 26.4622 10.1556C27.0775 10.1556 27.6314 10.5248 27.6314 10.5248L27.816 9.17097C27.816 9.17097 27.0775 8.86328 26.3391 8.86328C24.8622 8.86328 23.4468 10.1556 23.4468 12.5556C23.4468 14.1556 24.1852 15.2017 25.7237 15.2017C26.2775 15.2633 26.9545 15.0787 26.9545 15.0787Z" fill="white"/>
<path d="M9.29502 10.0352C8.43348 10.0352 7.75656 10.2813 7.75656 10.2813L7.57194 11.389C7.57194 11.389 8.12579 11.1428 8.98733 11.1428C9.4181 11.1428 9.78733 11.2044 9.78733 11.5736C9.78733 11.8198 9.72579 11.8813 9.72579 11.8813H9.17194C8.06425 11.8813 6.89502 12.3121 6.89502 13.789C6.89502 14.9582 7.63348 15.2044 8.12579 15.2044C8.98733 15.2044 9.4181 14.6505 9.47964 14.6505L9.4181 15.1428H10.4643L10.9566 11.6352C10.9566 10.0967 9.72579 10.0352 9.29502 10.0352ZM9.54117 12.8659C9.54117 13.0505 9.4181 14.0967 8.67964 14.0967C8.3104 14.0967 8.18733 13.789 8.18733 13.6044C8.18733 13.2967 8.37194 12.8659 9.35656 12.8659C9.47964 12.8659 9.54117 12.8659 9.54117 12.8659Z" fill="white"/>
<path d="M12.1835 15.2015C12.4912 15.2015 14.0912 15.263 14.0912 13.5399C14.0912 11.9399 12.5527 12.2476 12.5527 11.6322C12.5527 11.3245 12.7989 11.2015 13.2296 11.2015C13.4143 11.2015 14.0912 11.263 14.0912 11.263L14.2758 10.0938C14.2758 10.0938 13.845 9.9707 13.045 9.9707C12.1219 9.9707 11.1373 10.3399 11.1373 11.6322C11.1373 13.1092 12.7373 12.9861 12.7373 13.5399C12.7373 13.9092 12.3066 13.9707 11.9989 13.9707C11.445 13.9707 10.8296 13.7861 10.8296 13.7861L10.645 14.9553C10.7681 15.0784 11.1373 15.2015 12.1835 15.2015Z" fill="white"/>
<path d="M37.5402 9.04492L37.294 10.768C37.294 10.768 36.8017 10.1526 36.0633 10.1526C34.894 10.1526 33.9094 11.568 33.9094 13.2295C33.9094 14.2757 34.4017 15.3218 35.5094 15.3218C36.2479 15.3218 36.7402 14.8295 36.7402 14.8295L36.6787 15.2603H37.971L38.894 9.168L37.5402 9.04492ZM36.9248 12.368C36.9248 13.0449 36.6171 13.968 35.8787 13.968C35.4479 13.968 35.2017 13.5988 35.2017 12.9218C35.2017 11.8757 35.6325 11.2603 36.2479 11.2603C36.6787 11.3218 36.9248 11.6295 36.9248 12.368Z" fill="white"/>
<path d="M2.33746 15.1372L3.07592 10.5834L3.199 15.1372H4.06054L5.72207 10.5834L5.04515 15.1372H6.399L7.44515 9.04492H5.35284L4.06054 12.7988L3.999 9.04492H2.15284L1.10669 15.1372H2.33746Z" fill="white"/>
<path d="M22.0301 15.135C22.3994 13.0427 22.4609 11.3196 23.384 11.6273C23.5071 10.8273 23.6917 10.4581 23.8147 10.1504H23.5686C23.0147 10.1504 22.5224 10.8889 22.5224 10.8889L22.6455 10.2119H21.4147L20.6147 15.135H22.0301Z" fill="white"/>
<path d="M29.9103 10.0352C29.0487 10.0352 28.3718 10.2813 28.3718 10.2813L28.1872 11.389C28.1872 11.389 28.741 11.1428 29.6026 11.1428C30.0333 11.1428 30.4026 11.2044 30.4026 11.5736C30.4026 11.8198 30.341 11.8813 30.341 11.8813H29.7872C28.6795 11.8813 27.5103 12.3121 27.5103 13.789C27.5103 14.9582 28.2487 15.2044 28.741 15.2044C29.6026 15.2044 30.0333 14.6505 30.0949 14.6505L30.0333 15.1428H31.2026L31.6949 11.6352C31.6949 10.0967 30.341 10.0352 29.9103 10.0352ZM30.2179 12.8659C30.2179 13.0505 30.0949 14.0967 29.3564 14.0967C28.9872 14.0967 28.8641 13.789 28.8641 13.6044C28.8641 13.2967 29.0487 12.8659 30.0333 12.8659C30.1564 12.8659 30.1564 12.8659 30.2179 12.8659Z" fill="white"/>
<path d="M32.6756 15.135C33.0449 13.0427 33.1064 11.3196 34.0295 11.6273C34.1526 10.8273 34.3372 10.4581 34.4603 10.1504H34.2141C33.6603 10.1504 33.1679 10.8889 33.1679 10.8889L33.291 10.2119H32.0603L31.2603 15.135H32.6756Z" fill="white"/>
</svg>
