<svg width="20" height="17" viewBox="0 0 20 17" fill="none" xmlns="http://www.w3.org/2000/svg">
<path d="M19.1667 7.6585L15 7.65C14.5417 7.65 14.1667 8.0325 14.1667 8.5V16.15C14.1667 16.6175 14.5417 17 15 17H19.1667C19.625 17 20 16.6175 20 16.15V8.5C20 8.0325 19.625 7.6585 19.1667 7.6585ZM19.1667 15.3H15V9.35H19.1667V15.3ZM16.6667 0H1.66667C0.75 0 0 0.765 0 1.7V11.9C0 12.835 0.75 13.6 1.66667 13.6H7.5V15.3H6.66667C6.20833 15.3 5.83333 15.6825 5.83333 16.15C5.83333 16.6175 6.20833 17 6.66667 17H11.6667C12.125 17 12.5 16.6175 12.5 16.15C12.5 15.6825 12.125 15.3 11.6667 15.3H10.8333V13.6H11.6667C12.125 13.6 12.5 13.2175 12.5 12.75C12.5 12.2825 12.125 11.9 11.6667 11.9H2.5C2.04167 11.9 1.66667 11.5175 1.66667 11.05V2.55C1.66667 2.0825 2.04167 1.7 2.5 1.7H15.8333C16.2917 1.7 16.6667 2.0825 16.6667 2.55V5.1C16.6667 5.5675 17.0417 5.95 17.5 5.95C17.9583 5.95 18.3333 5.5675 18.3333 5.1V1.7C18.3333 0.765 17.5833 0 16.6667 0ZM9.975 5.95L9.16667 3.4L8.35833 5.95H5.83333L7.89167 7.446L7.10833 9.9195L9.16667 8.3895L11.225 9.9195L10.4417 7.446L12.5 5.95H9.975Z" fill="#9D7C47"/>
</svg>
