<svg width="14" height="15" viewBox="0 0 14 15" fill="none" xmlns="http://www.w3.org/2000/svg">
<path d="M0 2.85714L4.9 7.85714H0V10H7L11.9 15L12.775 14.1071L0.875 1.96429L0 2.85714ZM12.95 7.85714H14V10H12.95V7.85714ZM11.2 7.85714H12.25V10H11.2V7.85714ZM11.795 2.05714C12.229 1.62143 12.495 1.02143 12.495 0.357143H11.445C11.445 1.07143 10.85 1.67857 10.15 1.67857V2.75C11.718 2.75 12.95 4.05714 12.95 5.65714V7.14286H14V5.65714C14 4.06429 13.104 2.69286 11.795 2.05714ZM8.75 4.78571H9.821C10.556 4.78571 11.2 5.31429 11.2 6.25V7.14286H12.25V6.00714C12.25 4.72143 11.13 3.75 9.821 3.75H8.75C8.05 3.75 7.455 3.05 7.455 2.32143C7.455 1.59286 8.05 1.07143 8.75 1.07143V0C8.12807 0 7.53161 0.252104 7.09183 0.700852C6.65206 1.1496 6.405 1.75823 6.405 2.39286C6.405 3.02748 6.65206 3.63612 7.09183 4.08486C7.53161 4.53361 8.12807 4.78571 8.75 4.78571ZM10.5 9.95V7.85714H8.449L10.5 9.95Z" fill="#9D7C47"/>
</svg>
