<svg width="18" height="20" viewBox="0 0 18 20" fill="none" xmlns="http://www.w3.org/2000/svg">
<path d="M9 0C7.13064 0 5.33784 0.742711 4.01601 2.06475C2.69417 3.38678 1.95157 5.17984 1.95157 7.04948V10.6024C1.95172 10.7586 1.91552 10.9128 1.84585 11.0526L0.116966 14.5099C0.0325126 14.6788 -0.00736574 14.8664 0.00111898 15.0551C0.0096037 15.2438 0.0661697 15.4271 0.165445 15.5878C0.264719 15.7484 0.403407 15.881 0.568335 15.9729C0.733262 16.0649 0.918955 16.1131 1.10777 16.1131H16.8922C17.081 16.1131 17.2667 16.0649 17.4317 15.9729C17.5966 15.881 17.7353 15.7484 17.8346 15.5878C17.9338 15.4271 17.9904 15.2438 17.9989 15.0551C18.0074 14.8664 17.9675 14.6788 17.883 14.5099L16.1552 11.0526C16.0851 10.9128 16.0486 10.7587 16.0484 10.6024V7.04948C16.0484 5.17984 15.3058 3.38678 13.984 2.06475C12.6622 0.742711 10.8694 0 9 0ZM9 19.1343C8.37505 19.1346 7.76539 18.9411 7.25503 18.5804C6.74467 18.2196 6.35874 17.7095 6.15042 17.1202H11.8496C11.6413 17.7095 11.2553 18.2196 10.745 18.5804C10.2346 18.9411 9.62495 19.1346 9 19.1343Z" fill="white"/>
</svg>
