<svg width="20" height="20" viewBox="0 0 20 20" fill="none" xmlns="http://www.w3.org/2000/svg">
<path fill-rule="evenodd" clip-rule="evenodd" d="M2.45283 0C1.09887 0 0 1.09887 0 2.45283V17.5472C0 18.9026 1.09887 20 2.45283 20H17.5472C18.9026 20 20 18.9026 20 17.5472V2.45283C20 1.09887 18.9026 0 17.5472 0H2.45283ZM1.88679 2.45283C1.88679 2.14038 2.14038 1.88679 2.45283 1.88679H17.5472C17.8596 1.88679 18.1132 2.14038 18.1132 2.45283V17.5472C18.1132 17.6973 18.0536 17.8413 17.9474 17.9474C17.8413 18.0536 17.6973 18.1132 17.5472 18.1132H2.45283C2.30271 18.1132 2.15873 18.0536 2.05258 17.9474C1.94643 17.8413 1.88679 17.6973 1.88679 17.5472V2.45283ZM6.22642 3.58491C5.92617 3.58491 5.63822 3.70418 5.42592 3.91648C5.21361 4.12879 5.09434 4.41674 5.09434 4.71698V15.283C5.09434 15.5833 5.21361 15.8712 5.42592 16.0835C5.63822 16.2958 5.92617 16.4151 6.22642 16.4151C6.52666 16.4151 6.81461 16.2958 7.02691 16.0835C7.23922 15.8712 7.35849 15.5833 7.35849 15.283V11.8868H11.5094C12.4102 11.8868 13.274 11.529 13.9109 10.8921C14.5478 10.2551 14.9057 9.3913 14.9057 8.49057V6.98113C14.9057 6.0804 14.5478 5.21655 13.9109 4.57964C13.274 3.94272 12.4102 3.58491 11.5094 3.58491H6.22642ZM11.5094 9.62264H7.35849V5.84906H11.5094C11.8097 5.84906 12.0976 5.96833 12.3099 6.18063C12.5222 6.39294 12.6415 6.68089 12.6415 6.98113V8.49057C12.6415 8.79081 12.5222 9.07876 12.3099 9.29106C12.0976 9.50337 11.8097 9.62264 11.5094 9.62264Z" fill="#9D7C47"/>
</svg>
