<svg width="20" height="16" viewBox="0 0 20 16" fill="none" xmlns="http://www.w3.org/2000/svg">
<path d="M3.21429 0C2.3618 0 1.54424 0.344804 0.941442 0.95856C0.338647 1.57231 0 2.40475 0 3.27273V4.36364H20V3.27273C20 2.40475 19.6614 1.57231 19.0586 0.95856C18.4558 0.344804 17.6382 0 16.7857 0H3.21429ZM0 12.7273V5.81818H20V12.7273C20 13.5953 19.6614 14.4277 19.0586 15.0414C18.4558 15.6552 17.6382 16 16.7857 16H3.21429C2.3618 16 1.54424 15.6552 0.941442 15.0414C0.338647 14.4277 0 13.5953 0 12.7273ZM13.5714 10.1818C13.382 10.1818 13.2003 10.2584 13.0664 10.3948C12.9324 10.5312 12.8571 10.7162 12.8571 10.9091C12.8571 11.102 12.9324 11.287 13.0664 11.4234C13.2003 11.5597 13.382 11.6364 13.5714 11.6364H15.7143C15.9037 11.6364 16.0854 11.5597 16.2194 11.4234C16.3533 11.287 16.4286 11.102 16.4286 10.9091C16.4286 10.7162 16.3533 10.5312 16.2194 10.3948C16.0854 10.2584 15.9037 10.1818 15.7143 10.1818H13.5714Z" fill="#9D7C47"/>
</svg>
