<svg width="30" height="9" viewBox="0 0 30 9" fill="none" xmlns="http://www.w3.org/2000/svg">
<path d="M10.0981 1.75781C10.0384 1.75781 9.9877 1.80733 9.97837 1.87476L9.28749 6.88207C9.28498 6.90036 9.28596 6.91906 9.29038 6.93687C9.29479 6.95469 9.30253 6.9712 9.31306 6.98527C9.32359 6.99934 9.33666 7.01063 9.35137 7.01838C9.36609 7.02613 9.3821 7.03014 9.3983 7.03014H10.2176C10.2772 7.03014 10.328 6.98052 10.3373 6.91319L10.5403 5.44276C10.5495 5.37543 10.6003 5.32581 10.66 5.32581H11.4049C12.2753 5.32581 13.0141 4.60003 13.1491 3.61658C13.2851 2.62481 12.6072 1.75997 11.6463 1.75781H10.0981ZM10.8945 2.87564H11.4905C11.9812 2.87564 12.141 3.20652 12.0905 3.57244C12.04 3.93915 11.7918 4.20926 11.3171 4.20926H10.7105L10.8945 2.87564ZM14.8155 3.21601C14.6086 3.2169 14.3705 3.26534 14.1033 3.39256C13.4902 3.6846 13.1958 4.28814 13.0708 4.72814C13.0708 4.72814 12.6729 6.07057 13.5719 6.80808C13.5719 6.80808 14.4057 7.5181 15.3443 6.76434L15.3282 6.88207C15.3256 6.90035 15.3266 6.91902 15.331 6.93682C15.3354 6.95462 15.3432 6.97112 15.3537 6.98519C15.3642 6.99926 15.3772 7.01056 15.3919 7.01832C15.4066 7.02608 15.4226 7.03011 15.4388 7.03014H16.2166C16.2763 7.03014 16.327 6.98052 16.3363 6.91319L16.8094 3.48417C16.812 3.46588 16.811 3.44718 16.8066 3.42935C16.8022 3.41153 16.7945 3.395 16.784 3.38091C16.7735 3.36682 16.7604 3.35551 16.7457 3.34773C16.731 3.33996 16.715 3.33593 16.6988 3.3359H15.921C15.8613 3.3359 15.8105 3.38552 15.8013 3.45285L15.7758 3.63742C15.7758 3.63742 15.4362 3.21337 14.8155 3.21601ZM14.8409 4.2991C14.9302 4.2991 15.0119 4.31319 15.0852 4.3401C15.4208 4.46322 15.6111 4.83168 15.556 5.23107C15.4881 5.72285 15.1352 6.08495 14.6827 6.08495C14.5934 6.08495 14.5117 6.07096 14.4383 6.04405C14.1028 5.92093 13.9114 5.55247 13.9664 5.15307C14.0343 4.6613 14.3883 4.2991 14.8409 4.2991Z" fill="#003087"/>
<path d="M21.2983 1.75781C21.2386 1.75781 21.1879 1.80733 21.1786 1.87476L20.4877 6.88207C20.4852 6.90036 20.4862 6.91906 20.4906 6.93687C20.495 6.95469 20.5027 6.9712 20.5133 6.98527C20.5238 6.99934 20.5369 7.01063 20.5516 7.01838C20.5663 7.02613 20.5823 7.03014 20.5985 7.03014H21.4178C21.4774 7.03014 21.5282 6.98052 21.5375 6.91319L21.7405 5.44276C21.7497 5.37543 21.8005 5.32581 21.8602 5.32581H22.6051C23.4755 5.32581 24.2142 4.60003 24.3491 3.61658C24.4853 2.62481 23.8074 1.75997 22.8465 1.75781H21.2983ZM22.0947 2.87564H22.6907C23.1814 2.87564 23.3412 3.20652 23.2907 3.57244C23.2402 3.93915 22.9921 4.20926 22.5173 4.20926H21.9107L22.0947 2.87564ZM26.0156 3.21601C25.8087 3.2169 25.5706 3.26534 25.3034 3.39256C24.6903 3.6846 24.3959 4.28814 24.2709 4.72814C24.2709 4.72814 23.8732 6.07057 24.7722 6.80808C24.7722 6.80808 25.6058 7.5181 26.5445 6.76434L26.5283 6.88207C26.5258 6.90036 26.5268 6.91906 26.5312 6.93687C26.5357 6.95469 26.5434 6.9712 26.5539 6.98527C26.5645 6.99934 26.5775 7.01063 26.5922 7.01838C26.607 7.02613 26.623 7.03014 26.6392 7.03014H27.4169C27.4766 7.03014 27.5273 6.98052 27.5366 6.91319L28.0099 3.48417C28.0124 3.46586 28.0114 3.44714 28.007 3.42931C28.0026 3.41147 27.9949 3.39493 27.9844 3.38084C27.9738 3.36675 27.9608 3.35543 27.946 3.34767C27.9313 3.33991 27.9153 3.3359 27.8991 3.3359H27.1213C27.0616 3.3359 27.0108 3.38552 27.0016 3.45285L26.9761 3.63742C26.9761 3.63742 26.6363 3.21337 26.0156 3.21601ZM26.041 4.2991C26.1303 4.2991 26.212 4.31319 26.2853 4.3401C26.6209 4.46322 26.8112 4.83168 26.7561 5.23107C26.6882 5.72285 26.3353 6.08495 25.8828 6.08495C25.7935 6.08495 25.7118 6.07096 25.6385 6.04405C25.303 5.92093 25.1115 5.55247 25.1665 5.15307C25.2344 4.6613 25.5885 4.2991 26.041 4.2991Z" fill="#0070E0"/>
<path d="M17.179 3.33604C17.1173 3.33604 17.0735 3.40484 17.0923 3.47187L17.945 6.49603L17.174 7.92115C17.1366 7.99034 17.1801 8.07969 17.2512 8.07969H18.1625C18.1886 8.07967 18.2142 8.07196 18.2369 8.05732C18.2596 8.04268 18.2786 8.0216 18.2921 7.99612L20.6736 3.4936C20.7102 3.42441 20.6665 3.33594 20.5958 3.33594H19.6846C19.6582 3.33596 19.6324 3.34382 19.6095 3.35873C19.5867 3.37364 19.5676 3.3951 19.5542 3.42098L18.6168 5.22974L18.141 3.43439C18.1255 3.37596 18.0783 3.33594 18.0249 3.33594L17.179 3.33604Z" fill="#003087"/>
<path d="M28.8942 1.75781C28.8346 1.75781 28.7838 1.80743 28.7745 1.87476L28.0834 6.88188C28.0809 6.90018 28.0818 6.9189 28.0862 6.93674C28.0906 6.95457 28.0984 6.97111 28.1089 6.9852C28.1194 6.9993 28.1325 7.01061 28.1472 7.01837C28.162 7.02613 28.178 7.03014 28.1942 7.03014H29.0135C29.0731 7.03014 29.1239 6.98052 29.1333 6.91319L29.8241 1.90588C29.8267 1.88761 29.8257 1.86893 29.8213 1.85113C29.8169 1.83333 29.8091 1.81683 29.7986 1.80276C29.7881 1.7887 29.7751 1.77739 29.7604 1.76964C29.7457 1.76188 29.7297 1.75784 29.7135 1.75781H28.8942Z" fill="#0070E0"/>
<path d="M3.26712 1.75781C3.21434 1.75786 3.16331 1.77942 3.12319 1.81862C3.08308 1.85781 3.0565 1.91207 3.04825 1.97165L2.68457 4.60777C2.70153 4.48465 2.79435 4.39393 2.90344 4.39393H3.96914C5.04168 4.39393 5.95178 3.49973 6.11807 2.28795C6.13045 2.19748 6.13746 2.10616 6.13906 2.01461C5.86649 1.85127 5.54631 1.75781 5.19547 1.75781H3.26712Z" fill="#001C64"/>
<path d="M6.13925 2.01367C6.13765 2.10522 6.13064 2.19654 6.11826 2.28701C5.95196 3.49879 5.04178 4.39299 3.96932 4.39299H2.90363C2.79462 4.39299 2.70171 4.48361 2.68476 4.60683L2.35036 7.0292L2.14091 8.54886C2.13682 8.57822 2.13835 8.60825 2.1454 8.63687C2.15245 8.66548 2.16486 8.69201 2.18175 8.71462C2.19864 8.73723 2.21962 8.75538 2.24325 8.76782C2.26687 8.78026 2.29258 8.78669 2.31859 8.78668H3.47531C3.52809 8.78663 3.57912 8.76507 3.61924 8.72587C3.65936 8.68668 3.68593 8.63242 3.69419 8.57284L3.99886 6.3643C4.00712 6.30469 4.03372 6.2504 4.07388 6.2112C4.11403 6.17201 4.16511 6.15047 4.21792 6.15046H4.89895C5.97149 6.15046 6.88159 5.25626 7.04789 4.04449C7.16597 3.18444 6.78697 2.40181 6.13925 2.01367Z" fill="#0070E0"/>
<path d="M1.95303 0C1.84402 0 1.75111 0.0906239 1.73416 0.213641L0.826453 6.7918C0.809241 6.91668 0.893676 7.02961 1.00431 7.02961H2.35036L2.68459 4.60723L3.04826 1.97112C3.05652 1.91154 3.08309 1.85728 3.12321 1.81808C3.16333 1.77889 3.21436 1.75733 3.26714 1.75728H5.19549C5.54641 1.75728 5.86651 1.85084 6.13908 2.01408C6.15774 0.910838 5.36119 0 4.26604 0H1.95303Z" fill="#003087"/>
</svg>
