<svg width="17" height="19" viewBox="0 0 17 19" fill="none" xmlns="http://www.w3.org/2000/svg">
<path d="M11.6915 9.94378C9.25537 9.94378 7.27818 11.921 7.27818 14.3571C7.27818 16.7933 9.25537 18.7705 11.6915 18.7705C14.1277 18.7705 16.1049 16.7933 16.1049 14.3571C16.1049 11.921 14.1277 9.94378 11.6915 9.94378ZM13.148 16.4314L11.2502 14.5337V11.7091H12.1329V14.1718L13.7658 15.8047L13.148 16.4314ZM12.5742 1.99972H9.76732C9.3966 0.97582 8.42565 0.234375 7.27818 0.234375C6.13071 0.234375 5.15977 0.97582 4.78904 1.99972H1.98214C1.0112 1.99972 0.216797 2.79413 0.216797 3.76507V17.0052C0.216797 17.9761 1.0112 18.7705 1.98214 18.7705H7.37527C6.8524 18.2642 6.42749 17.6657 6.12188 17.0052H1.98214V3.76507H3.74749V6.41309H10.8089V3.76507H12.5742V8.24905C13.2009 8.33731 13.7923 8.52267 14.3396 8.77865V3.76507C14.3396 2.79413 13.5452 1.99972 12.5742 1.99972ZM7.27818 3.76507C6.79271 3.76507 6.39551 3.36786 6.39551 2.88239C6.39551 2.39692 6.79271 1.99972 7.27818 1.99972C7.76365 1.99972 8.16085 2.39692 8.16085 2.88239C8.16085 3.36786 7.76365 3.76507 7.27818 3.76507Z" fill="#3B5998"/>
</svg>
