<svg width="20" height="21" viewBox="0 0 20 21" fill="none" xmlns="http://www.w3.org/2000/svg">
<path d="M5.4339 21H15.3117C15.8805 20.9998 16.4259 20.7624 16.8281 20.34C17.2302 19.9177 17.4561 19.3449 17.4561 18.7478V8.75875C19.4672 8.67475 20.6731 6.33063 19.598 4.50887L18.9696 3.44487C18.732 3.04203 18.4004 2.70955 18.0062 2.47894C17.612 2.24833 17.1682 2.12723 16.7169 2.12713H14.9233V1.295C14.9233 0.951696 14.7935 0.62244 14.5623 0.379606C14.3312 0.136771 14.0177 0.000231962 13.6907 0C13.2892 0.000114891 12.8917 0.0832448 12.5209 0.244643C12.15 0.406042 11.8131 0.642549 11.5293 0.940659C11.2455 1.23877 11.0204 1.59265 10.8669 1.98209C10.7134 2.37152 10.6344 2.7889 10.6345 3.21038V7.74725C9.03681 7.91088 7.83084 8.70538 6.94491 9.82188C5.96647 11.0556 5.39057 12.6639 5.04719 14.2083C4.70299 15.7614 4.58047 17.304 4.54464 18.452C4.53133 18.8637 4.52772 19.2756 4.5338 19.6875H3.71037C3.23025 19.6873 2.76064 19.5398 2.35924 19.2632C1.95785 18.9866 1.64215 18.5929 1.45094 18.1306C1.25973 17.6682 1.20132 17.1572 1.28291 16.6605C1.36449 16.1637 1.58251 15.7028 1.91017 15.3344L3.0603 14.0394C3.85321 13.1467 4.28506 11.9656 4.26485 10.7452C4.24464 9.52477 3.77394 8.36023 2.95196 7.497L1.82433 6.31138C1.7671 6.2469 1.69809 6.19518 1.62142 6.15932C1.54474 6.12345 1.46197 6.10416 1.37804 6.10261C1.29412 6.10105 1.21075 6.11726 1.13292 6.15027C1.05508 6.18327 0.984381 6.2324 0.925025 6.29472C0.86567 6.35703 0.818877 6.43126 0.787439 6.51298C0.756002 6.59469 0.740563 6.68222 0.742044 6.77033C0.743524 6.85845 0.761895 6.94535 0.796058 7.02585C0.830222 7.10635 0.87948 7.1788 0.940892 7.23887L2.07019 8.42537C2.66324 9.04777 3.00282 9.88769 3.01729 10.7679C3.03175 11.6482 2.71996 12.4999 2.1477 13.1434L0.997566 14.4384C0.504449 14.9939 0.176459 15.6884 0.0538158 16.4368C-0.0688275 17.1852 0.0192063 17.9549 0.307122 18.6515C0.595038 19.3481 1.07032 19.9414 1.67469 20.3585C2.27906 20.7757 2.98625 20.9986 3.70954 21H5.4339ZM13.674 1.3125V2.78425C13.674 3.14738 13.9532 3.4405 14.2991 3.4405H16.716C17.2019 3.4405 17.652 3.70388 17.9078 4.137L18.5354 5.20188C19.1146 6.18188 18.4437 7.44975 17.3444 7.44975H16.831C16.6653 7.44975 16.5063 7.51889 16.389 7.64196C16.2718 7.76503 16.206 7.93195 16.206 8.106V18.7478C16.206 19.2666 15.8059 19.6875 15.3117 19.6875H14.4166V18.7478C14.4168 18.2424 14.3222 17.742 14.1382 17.2751C13.9542 16.8082 13.6844 16.3839 13.3441 16.0264C13.0039 15.669 12.6 15.3854 12.1553 15.1919C11.7107 14.9984 11.2342 14.8987 10.7528 14.8986H9.48603C9.32025 14.8986 9.16126 14.9678 9.04404 15.0908C8.92682 15.2139 8.86096 15.3808 8.86096 15.5549C8.86096 15.7289 8.92682 15.8958 9.04404 16.0189C9.16126 16.142 9.32025 16.2111 9.48603 16.2111H10.7528C12.0863 16.2111 13.1673 17.3469 13.1673 18.7478V19.6875H5.78311C5.77689 19.2899 5.78022 18.8923 5.79311 18.4949C5.82812 17.3976 5.94396 15.9469 6.264 14.5066C6.5857 13.0585 7.10243 11.6734 7.90502 10.6628C8.68844 9.67488 9.75273 9.02825 11.2596 9.02825C11.3417 9.02825 11.4229 9.01128 11.4988 8.9783C11.5746 8.94532 11.6435 8.89698 11.7016 8.83604C11.7596 8.7751 11.8056 8.70276 11.8371 8.62314C11.8685 8.54352 11.8846 8.45818 11.8846 8.372V3.2095C11.8846 2.16825 12.6839 1.32212 13.674 1.3125Z" fill="#9D7C47"/>
</svg>
