<svg width="24" height="33" viewBox="0 0 24 33" fill="none" xmlns="http://www.w3.org/2000/svg">
<path d="M24 12.1043C24.0012 10.0656 23.4913 8.05976 22.5177 6.27295C21.5441 4.48615 20.1383 2.97636 18.431 1.88384C16.7236 0.79131 14.7701 0.151476 12.7518 0.0237636C10.7335 -0.103949 8.71588 0.284604 6.88641 1.15333C5.05694 2.02206 3.47493 3.34278 2.28731 4.99283C1.09969 6.64288 0.34499 8.56873 0.0933036 10.5915C-0.158382 12.6143 0.101111 14.6684 0.84768 16.563C1.59425 18.4576 2.80368 20.1313 4.36364 21.4286V31.8995C4.3635 32.087 4.41095 32.2715 4.50148 32.4354C4.592 32.5992 4.72259 32.737 4.88084 32.8356C5.03908 32.9343 5.21972 32.9905 5.40558 32.9989C5.59144 33.0073 5.77635 32.9677 5.94273 32.8837L12 29.8375L18.0586 32.8906C18.2106 32.9637 18.3771 33.0009 18.5455 32.9992C18.8348 32.9992 19.1123 32.8834 19.3168 32.6771C19.5214 32.4709 19.6364 32.1911 19.6364 31.8995V21.4286C21.0013 20.2954 22.1004 18.8716 22.8548 17.2595C23.6093 15.6473 24.0004 13.8868 24 12.1043ZM2.18182 12.1043C2.18182 10.1467 2.75765 8.2331 3.83648 6.60544C4.91532 4.97779 6.44871 3.70919 8.24274 2.96006C10.0368 2.21094 12.0109 2.01493 13.9154 2.39683C15.82 2.77873 17.5694 3.72139 18.9425 5.10559C20.3156 6.4898 21.2507 8.25339 21.6295 10.1733C22.0084 12.0933 21.8139 14.0834 21.0708 15.8919C20.3277 17.7005 19.0693 19.2463 17.4547 20.3338C15.8401 21.4214 13.9419 22.0019 12 22.0019C9.39694 21.999 6.90133 20.9552 5.06069 19.0997C3.22005 17.2442 2.18471 14.7284 2.18182 12.1043ZM4.36364 12.1043C4.36364 10.5817 4.8115 9.09336 5.6506 7.8274C6.48969 6.56145 7.68233 5.57476 9.07769 4.99211C10.4731 4.40945 12.0085 4.257 13.4898 4.55404C14.9711 4.85107 16.3318 5.58425 17.3997 6.66085C18.4677 7.73746 19.195 9.10914 19.4896 10.6024C19.7843 12.0957 19.6331 13.6436 19.0551 15.0502C18.4771 16.4569 17.4983 17.6591 16.2425 18.505C14.9867 19.3509 13.5103 19.8024 12 19.8024C9.97537 19.8002 8.03429 18.9885 6.60267 17.5453C5.17104 16.102 4.3658 14.1453 4.36364 12.1043Z" fill="white"/>
</svg>
