<svg width="20" height="17" viewBox="0 0 20 17" fill="none" xmlns="http://www.w3.org/2000/svg">
<path fill-rule="evenodd" clip-rule="evenodd" d="M4.49707 2.72998C4.41406 2.73324 4.35221 2.74951 4.3099 2.77881C4.28548 2.79509 4.26758 2.81625 4.25619 2.84066C4.24316 2.86833 4.23828 2.90088 4.23828 2.93994C4.24154 3.05225 4.30013 3.20036 4.41569 3.36963L4.41732 3.37126L4.78841 3.96208C4.93652 4.19808 5.09277 4.44059 5.28646 4.618C5.47201 4.7889 5.69987 4.90446 5.99772 4.90446C6.32161 4.90446 6.55925 4.78565 6.7513 4.60498C6.9515 4.41781 7.10938 4.16065 7.264 3.90511L7.68229 3.21664C7.76042 3.03923 7.78809 2.92041 7.77018 2.85042C7.76042 2.80811 7.71322 2.78858 7.63509 2.78532C7.61882 2.78532 7.60091 2.78369 7.58464 2.78532C7.56673 2.78532 7.5472 2.78695 7.52604 2.78858C7.51465 2.7902 7.50488 2.78858 7.49349 2.78695C7.45606 2.78858 7.41862 2.78695 7.37956 2.78044L7.52279 2.1473C6.45996 2.31494 5.66569 1.52555 4.54264 1.98942L4.62402 2.73649C4.58008 2.73812 4.53776 2.73649 4.49707 2.72998ZM12.0882 1.9585H18.6442C18.9063 1.9585 19.1211 2.17334 19.1211 2.43539V6.31559C19.1211 6.57764 18.9063 6.79248 18.6442 6.79248H16.1117L16.4844 7.72998H19.279C19.4775 7.72998 19.6582 7.81136 19.7884 7.94157C19.9186 8.07178 20 8.25244 20 8.45101V10.0965C20 10.2935 19.9186 10.4741 19.7884 10.6043L19.7868 10.606C19.6566 10.7362 19.4759 10.8175 19.279 10.8175H18.8265V15.7834C18.8265 15.9331 18.7647 16.0698 18.667 16.1691C18.5677 16.2684 18.431 16.3286 18.2812 16.3286H1.88802C1.73665 16.3286 1.59993 16.2668 1.50065 16.1675C1.49089 16.1577 1.48275 16.148 1.47461 16.1382C1.3916 16.0422 1.33952 15.9168 1.33952 15.7801V10.8159H0.721029C0.522461 10.8159 0.341797 10.7345 0.211589 10.6043C0.203451 10.5962 0.195312 10.5881 0.188802 10.5799C0.0716146 10.4513 0 10.2821 0 10.0949V8.44938C0 8.25082 0.0813802 8.07015 0.211589 7.93994C0.219727 7.93181 0.229492 7.92367 0.23763 7.91716C0.366211 7.79997 0.535482 7.72998 0.721029 7.72998C1.57715 7.72998 1.18164 7.72998 2.03776 7.72998C2.02799 7.6958 2.01986 7.66 2.0166 7.61931C2.02962 6.58089 1.87174 6.38721 2.96387 5.77686C3.36426 5.55388 4.39616 5.47738 4.84701 5.18278C4.91536 5.05257 4.99186 4.82145 5.03744 4.68311L5.04232 4.67009C4.8763 4.49268 4.74121 4.28272 4.611 4.07601L4.23991 3.48682C4.10482 3.28499 4.0332 3.09945 4.02995 2.94808C4.02832 2.87647 4.03971 2.81136 4.06576 2.7544C4.09342 2.69417 4.13574 2.64535 4.19271 2.60628C4.21875 2.58838 4.24967 2.57373 4.28223 2.56071C4.25781 2.24007 4.24967 1.83805 4.26432 1.49951C4.27246 1.41976 4.28711 1.34001 4.3099 1.25863C4.44499 0.773602 4.86328 0.423667 5.34017 0.259279C5.57292 0.179526 5.4834 -0.0109036 5.71777 0.000489643C6.27116 0.0314141 7.12565 0.387859 7.45443 0.765464C7.91504 1.29606 7.79622 1.94873 7.77995 2.59652C7.88249 2.62744 7.94922 2.69255 7.97526 2.79834C8.00456 2.91553 7.97201 3.07992 7.87435 3.30453C7.87272 3.30941 7.87109 3.31266 7.86784 3.31592L7.44466 4.01253C7.2819 4.28109 7.11589 4.54964 6.89453 4.75635L6.88477 4.76937C6.90592 4.80029 6.92871 4.83285 6.95313 4.86865C7.02637 4.97608 7.10938 5.09815 7.1875 5.19417C7.64648 5.48063 8.65885 5.55713 9.05273 5.77686C10.0586 6.33838 9.80957 6.63786 9.88281 7.61931C9.87956 7.65837 9.87142 7.6958 9.86165 7.72998H14.2562L14.694 6.79248H12.0882C11.8262 6.79248 11.6113 6.57764 11.6113 6.31559V2.43539C11.6113 2.17171 11.8262 1.9585 12.0882 1.9585ZM1.56087 8.40707C1.54297 8.41032 1.52507 8.41195 1.50716 8.41195C1.48926 8.41195 1.47135 8.41032 1.45345 8.40707H0.721029C0.712891 8.40707 0.703125 8.40869 0.698242 8.41358L0.691732 8.42009C0.683594 8.42822 0.678711 8.43799 0.678711 8.44938V10.0949C0.678711 10.1047 0.681966 10.1128 0.685221 10.1193L0.690104 10.1242C0.698242 10.1323 0.708008 10.1372 0.719401 10.1372H1.63086C1.64551 10.1356 1.66178 10.134 1.67643 10.134C1.69271 10.134 1.70736 10.1356 1.72201 10.1372H18.4391C18.4538 10.1356 18.4701 10.134 18.4847 10.134C18.501 10.134 18.5156 10.1356 18.5303 10.1372H19.2757C19.2871 10.1372 19.2985 10.1323 19.305 10.1258C19.3132 10.1177 19.3164 10.1079 19.3164 10.0949V8.44938C19.3164 8.43799 19.3115 8.42822 19.3034 8.42009C19.2952 8.41195 19.2855 8.40707 19.2741 8.40707H1.56087ZM2.01823 10.8159V15.6499H18.1494V10.8159H2.01823ZM5.24414 5.84196C5.05697 5.62875 5.04069 5.40576 5.24414 5.16976C5.47852 5.22835 5.69336 5.33089 5.89193 5.46761C5.93425 5.44971 5.9847 5.44157 6.03353 5.44483C6.23861 5.29834 6.50228 5.23975 6.73177 5.1307C7.00521 5.39763 6.97591 5.64339 6.70736 5.87126C6.55762 5.83708 6.41439 5.78337 6.27604 5.71338C6.27279 5.74919 6.26302 5.78662 6.24675 5.82894L6.54622 7.24821C6.77409 6.7697 7.01009 6.00798 7.07031 5.38949C6.97103 5.27718 6.86523 5.12256 6.77409 4.9891C6.75293 4.95817 6.7334 4.9305 6.71549 4.90283C6.52181 5.03304 6.29069 5.11279 6.00098 5.11279C5.67871 5.11279 5.42806 5.00212 5.21973 4.83285C5.16113 5.007 5.07487 5.24789 4.99349 5.36345C4.98698 5.37158 4.98047 5.37972 4.97233 5.38623C5.08138 6.05843 5.31576 6.7876 5.5306 7.24984L5.83008 5.83057C5.78613 5.75733 5.76986 5.69385 5.77148 5.64014C5.60547 5.73779 5.42806 5.80127 5.24414 5.84196Z" fill="#9D7C47"/>
</svg>
