<svg width="22" height="19" viewBox="0 0 22 19" fill="none" xmlns="http://www.w3.org/2000/svg">
<path d="M0 9.5C0 12.0196 0.993364 14.4359 2.76156 16.2175C4.52976 17.9991 6.92796 19 9.42857 19C11.9324 19 14.3314 18.0078 16.1333 16.2556L14.5619 14.6722C13.9024 15.376 13.1065 15.9358 12.2235 16.3171C11.3405 16.6984 10.3892 16.893 9.42857 16.8889C2.89143 16.8889 -0.377143 8.93 4.24286 4.275C8.86286 -0.38 16.7619 2.92389 16.7619 9.5H13.619L17.8095 13.7222H17.9143L22 9.5H18.8571C18.8571 6.98044 17.8638 4.56408 16.0956 2.78249C14.3274 1.00089 11.9292 0 9.42857 0C6.92796 0 4.52976 1.00089 2.76156 2.78249C0.993364 4.56408 0 6.98044 0 9.5Z" fill="white"/>
</svg>
