<svg width="16" height="17" viewBox="0 0 16 17" fill="none" xmlns="http://www.w3.org/2000/svg">
<path d="M3.625 1V16M1 1V3.64706C1 3.99468 1.0679 4.33889 1.19982 4.66004C1.33173 4.9812 1.52509 5.27301 1.76884 5.51881C2.0126 5.76461 2.30198 5.9596 2.62046 6.09262C2.93894 6.22565 3.28028 6.29412 3.625 6.29412C3.96972 6.29412 4.31106 6.22565 4.62954 6.09262C4.94802 5.9596 5.2374 5.76461 5.48116 5.51881C5.72491 5.27301 5.91827 4.9812 6.05018 4.66004C6.1821 4.33889 6.25 3.99468 6.25 3.64706V1M12.375 8.05882C11.6788 8.05882 11.0111 7.68698 10.5188 7.02508C10.0266 6.36319 9.75 5.46547 9.75 4.52941C9.75 3.59335 10.0266 2.69563 10.5188 2.03374C11.0111 1.37185 11.6788 1 12.375 1C13.0712 1 13.7389 1.37185 14.2312 2.03374C14.7234 2.69563 15 3.59335 15 4.52941C15 5.46547 14.7234 6.36319 14.2312 7.02508C13.7389 7.68698 13.0712 8.05882 12.375 8.05882ZM12.375 8.05882V16" stroke="#9D7C47" stroke-width="2" stroke-linecap="round" stroke-linejoin="round"/>
</svg>
