<svg width="18" height="18" viewBox="0 0 18 18" fill="none" xmlns="http://www.w3.org/2000/svg">
<path d="M16.2 1.8L16.2 16.2L1.8 16.2L1.8 1.8L16.2 1.8ZM16.2 0L1.8 0C0.81 0 0 0.81 0 1.8L0 16.2C0 17.19 0.81 18 1.8 18L16.2 18C17.19 18 18 17.19 18 16.2L18 1.8C18 0.81 17.19 0 16.2 0ZM13.05 7.803L13.05 6.3C13.05 5.31 12.24 4.5 11.25 4.5L6.75 4.5C5.76 4.5 4.95 5.31 4.95 6.3L4.95 7.803C4.158 8.118 3.6 8.883 3.6 9.783L3.6 13.5L4.95 13.5L4.95 12.15L13.05 12.15L13.05 13.5L14.4 13.5L14.4 9.783C14.4 8.883 13.842 8.118 13.05 7.803ZM11.7 5.85L11.7 7.65L6.3 7.65L6.3 5.85L11.7 5.85ZM4.95 9.783C4.95 9.351 5.301 9 5.733 9L12.276 9C12.708 9 13.059 9.351 13.059 9.783L13.059 10.8L4.959 10.8L4.959 9.783H4.95Z" fill="#6C6B6A"/>
</svg>
