<svg width="15" height="14" viewBox="0 0 15 14" fill="none" xmlns="http://www.w3.org/2000/svg">
<path fill-rule="evenodd" clip-rule="evenodd" d="M4.49463 12.898L4.35181 9.37515L5.96924 9.31177C6.66016 9.40505 7.35962 9.74346 8.06274 10.1393L9.31885 10.0902C9.88892 10.1022 10.21 10.6547 9.67163 11.0469C9.24438 11.3805 8.66211 11.3853 8.06396 11.3554C7.65259 11.3518 7.65625 11.8935 8.08472 11.878C8.23364 11.884 8.39478 11.8433 8.53516 11.8373C9.27856 11.8074 9.88525 11.6448 10.2368 11.0541L10.4077 10.6164L12.24 9.63584C13.1628 9.29742 13.7842 10.15 13.1226 10.8436C11.8079 11.8612 10.5347 12.7892 9.14062 13.4852C8.13477 14.1393 7.10205 14.1596 6.04736 13.6059L4.49463 12.898ZM3.63037 7.53002H14.8486C14.9316 7.53002 15 7.59818 15 7.6783V8.32523C15 8.40535 14.9316 8.47351 14.8486 8.47351H3.63037C3.54736 8.47351 3.479 8.40655 3.479 8.32523V7.6783C3.479 7.59698 3.54736 7.53002 3.63037 7.53002ZM9.67529 1.34289C12.7466 1.58325 15.3333 4.11239 14.9512 7.08996H3.52905C3.15186 4.09326 5.74829 1.56053 8.84155 1.33931V0.853808H8.35327C8.26782 0.853808 8.19702 0.784452 8.19702 0.700745V0.153064C8.19702 0.069357 8.2666 0 8.35327 0H10.1501C10.2356 0 10.3064 0.069357 10.3064 0.153064V0.700745C10.3064 0.784452 10.2356 0.853808 10.1501 0.853808H9.67529V1.34289ZM0 9.25438L3.85132 9.05587L4.02222 13.2711L0.170898 13.4684L0 9.25438Z" fill="#9D7C47"/>
</svg>
