<svg width="32" height="32" viewBox="0 0 32 32" fill="none" xmlns="http://www.w3.org/2000/svg">
<path d="M5.95349 8.11172C5.95349 5.96036 6.81594 3.89711 8.35113 2.37587C9.88631 0.854625 11.9685 0 14.1395 0C16.3106 0 18.3928 0.854625 19.9279 2.37587C21.4631 3.89711 22.3256 5.96036 22.3256 8.11172C22.3256 10.2631 21.4631 12.3263 19.9279 13.8476C18.3928 15.3688 16.3106 16.2234 14.1395 16.2234C11.9685 16.2234 9.88631 15.3688 8.35113 13.8476C6.81594 12.3263 5.95349 10.2631 5.95349 8.11172ZM18.6047 16.9609H32V25.2702C31.9997 26.0056 31.8145 26.7293 31.4611 27.3759C31.1077 28.0225 30.5972 28.5716 29.9758 28.9736L25.3023 32L20.6288 28.9736C20.0074 28.5716 19.497 28.0225 19.1435 27.3759C18.7901 26.7293 18.6049 26.0056 18.6047 25.2702V16.9609ZM15.6279 29.4972H0V26.5474C0 24.2005 0.940861 21.9497 2.6156 20.2902C4.29035 18.6306 6.56179 17.6983 8.93023 17.6983H15.6279V29.4972Z" fill="white"/>
</svg>
