<svg width="45" height="36" viewBox="0 0 45 36" fill="none" xmlns="http://www.w3.org/2000/svg">
<path fill-rule="evenodd" clip-rule="evenodd" d="M5.74057 1.20662C5.95979 0.838571 6.27008 0.533958 6.64118 0.322488C7.01228 0.111018 7.43152 -8.99649e-05 7.85802 5.46568e-08H37.1444C37.5709 -8.99649e-05 37.9902 0.111018 38.3613 0.322488C38.7324 0.533958 39.0427 0.838571 39.2619 1.20662L44.8245 10.5343C44.9367 10.7227 44.9973 10.9377 44.9999 11.1574C45.0026 11.377 44.9472 11.5934 44.8396 11.7845C44.7319 11.9756 44.5758 12.1345 44.3872 12.245C44.1985 12.3556 43.9841 12.4138 43.7658 12.4138H41.0141V33.5172C41.0141 34.1757 40.7541 34.8072 40.2913 35.2728C39.8285 35.7384 39.2007 36 38.5462 36H21.271C20.6165 36 19.9888 35.7384 19.5259 35.2728C19.0631 34.8072 18.8031 34.1757 18.8031 33.5172V20.3586C18.8031 20.2269 18.7511 20.1006 18.6585 20.0075C18.566 19.9144 18.4404 19.8621 18.3095 19.8621H10.6591C10.5282 19.8621 10.4026 19.9144 10.3101 20.0075C10.2175 20.1006 10.1655 20.2269 10.1655 20.3586V33.5172C10.1655 34.1757 9.90548 34.8072 9.44266 35.2728C8.97985 35.7384 8.35213 36 7.6976 36H6.46366C5.80914 36 5.18142 35.7384 4.7186 35.2728C4.25578 34.8072 3.99577 34.1757 3.99577 33.5172V12.4138H1.23667C1.01814 12.4143 0.803399 12.3564 0.614406 12.246C0.425414 12.1356 0.26895 11.9767 0.161014 11.7855C0.0530781 11.5944 -0.00245829 11.3778 8.34898e-05 11.158C0.00262527 10.9381 0.0631536 10.7229 0.17548 10.5343L5.74057 1.20662ZM23.7389 20.2742C23.7389 19.7032 24.2004 19.2414 24.768 19.2414H35.0492C35.6168 19.2414 36.0783 19.7057 36.0783 20.2767V27.5164C36.0783 28.0874 35.6193 28.5517 35.0492 28.5517H24.768C24.6328 28.5517 24.499 28.5249 24.3742 28.4729C24.2493 28.4209 24.1359 28.3446 24.0403 28.2485C23.9447 28.1523 23.8689 28.0382 23.8172 27.9126C23.7655 27.787 23.7389 27.6524 23.7389 27.5164V20.2742Z" fill="url(#paint0_linear_62_1277)"/>
<defs>
<linearGradient id="paint0_linear_62_1277" x1="0" y1="18" x2="45" y2="18" gradientUnits="userSpaceOnUse">
<stop stop-color="#9D7C47"/>
<stop offset="1" stop-color="#372B19"/>
</linearGradient>
</defs>
</svg>
