<svg width="14" height="14" viewBox="0 0 14 14" fill="none" xmlns="http://www.w3.org/2000/svg">
<path d="M12.6 1.4L12.6 12.6L1.4 12.6L1.4 1.4L12.6 1.4ZM12.6 0L1.4 0C0.63 0 0 0.63 0 1.4L0 12.6C0 13.37 0.63 14 1.4 14L12.6 14C13.37 14 14 13.37 14 12.6L14 1.4C14 0.63 13.37 0 12.6 0ZM10.15 6.069L10.15 4.9C10.15 4.13 9.52 3.5 8.75 3.5L5.25 3.5C4.48 3.5 3.85 4.13 3.85 4.9L3.85 6.069C3.234 6.314 2.8 6.909 2.8 7.609L2.8 10.5L3.85 10.5L3.85 9.45L10.15 9.45L10.15 10.5L11.2 10.5L11.2 7.609C11.2 6.909 10.766 6.314 10.15 6.069ZM9.1 4.55L9.1 5.95L4.9 5.95L4.9 4.55L9.1 4.55ZM3.85 7.609C3.85 7.273 4.123 7 4.459 7L9.548 7C9.884 7 10.157 7.273 10.157 7.609L10.157 8.4L3.857 8.4L3.857 7.609H3.85Z" fill="#9D7C47"/>
</svg>
