<svg width="12" height="10" viewBox="0 0 12 10" fill="none" xmlns="http://www.w3.org/2000/svg">
<path d="M3.41997 8.59413L0.305611 5.17688C0.203614 5.06542 0.124192 4.93462 0.0718798 4.79194C0.0195672 4.64926 -0.00461138 4.4975 0.00072453 4.34531C0.0115009 4.03795 0.141842 3.74754 0.363074 3.53796C0.584306 3.32838 0.878308 3.21679 1.1804 3.22776C1.48249 3.23872 1.76793 3.37133 1.97393 3.59642L4.38168 6.21959L8.19506 2.5929C8.22905 2.56117 8.2649 2.53156 8.30241 2.50424L10.092 0.799786C10.3142 0.595497 10.6065 0.488209 10.9057 0.50103C11.205 0.513851 11.4874 0.645757 11.692 0.868334C11.8966 1.09091 12.0071 1.38635 11.9997 1.69101C11.9922 1.99567 11.8675 2.28518 11.6523 2.49717L6.1706 7.70111L4.26738 9.5L3.42628 8.58192L3.41997 8.59413Z" fill="white"/>
</svg>
