<svg width="22" height="21" viewBox="0 0 22 21" fill="none" xmlns="http://www.w3.org/2000/svg">
<path fill-rule="evenodd" clip-rule="evenodd" d="M5.43564 20.1165C5.60427 20.1163 5.77032 20.0755 5.91941 19.9976L11.3693 17.1648L16.8191 19.9976C16.9906 20.0861 17.1837 20.1254 17.3766 20.1112C17.5696 20.0971 17.7546 20.0299 17.911 19.9173C18.0675 19.8047 18.189 19.6512 18.262 19.474C18.335 19.2968 18.3565 19.1029 18.3242 18.9143L17.285 12.9134L21.6896 8.66345C21.8282 8.52945 21.9262 8.35978 21.9724 8.17362C22.0187 7.98746 22.0114 7.79222 21.9513 7.60994C21.8913 7.42767 21.781 7.26563 21.6327 7.14213C21.4845 7.01863 21.3043 6.93858 21.1126 6.91104L15.0237 6.0352L12.2987 0.575639C12.2132 0.402949 12.0804 0.257459 11.9154 0.155701C11.7505 0.0539439 11.5599 0 11.3655 0C11.1711 0 10.9806 0.0539439 10.8156 0.155701C10.6507 0.257459 10.5179 0.402949 10.4323 0.575639L7.70816 6.0352L1.62299 6.91104C1.43132 6.93881 1.25132 7.01902 1.1033 7.14261C0.955273 7.26621 0.845116 7.42827 0.785259 7.6105C0.725403 7.79273 0.718229 7.98789 0.764547 8.17395C0.810865 8.36 0.908833 8.52954 1.04739 8.66345L5.45207 12.9134L4.41286 18.9143C4.38734 19.0617 4.39464 19.2128 4.43425 19.3571C4.47387 19.5015 4.54484 19.6355 4.64223 19.7499C4.73961 19.8643 4.86106 19.9563 4.99809 20.0195C5.13513 20.0827 5.28445 20.1163 5.43564 20.1165Z" fill="#E8B442"/>
</svg>
