<svg width="10" height="10" viewBox="0 0 10 10" fill="none" xmlns="http://www.w3.org/2000/svg">
<path fill-rule="evenodd" clip-rule="evenodd" d="M7.78928 9.5625C7.71 9.56243 7.63192 9.54303 7.56182 9.50599L4.99936 8.15947L2.4369 9.50599C2.35625 9.54804 2.26546 9.56675 2.17476 9.56001C2.08405 9.55326 1.99703 9.52134 1.92348 9.46782C1.84994 9.4143 1.79279 9.34132 1.75847 9.25709C1.72416 9.17285 1.71403 9.08071 1.72924 8.99104L2.21786 6.13863L0.14683 4.1185C0.0816673 4.05481 0.0356136 3.97416 0.0138705 3.88567C-0.00787264 3.79718 -0.00443884 3.70438 0.023784 3.61774C0.0520069 3.5311 0.103894 3.45408 0.173585 3.39537C0.243276 3.33667 0.327994 3.29862 0.41817 3.28553L3.28111 2.86921L4.56234 0.274108C4.60256 0.192023 4.665 0.122867 4.74256 0.0744982C4.82013 0.0261295 4.9097 0.000488281 5.00111 0.000488281C5.09252 0.000488281 5.1821 0.0261295 5.25966 0.0744982C5.33723 0.122867 5.39967 0.192023 5.43989 0.274108L6.72077 2.86921L9.58195 3.28553C9.67207 3.29873 9.7567 3.33685 9.8263 3.3956C9.8959 3.45435 9.9477 3.53138 9.97584 3.618C10.004 3.70462 10.0074 3.79739 9.98558 3.88583C9.9638 3.97426 9.91774 4.05485 9.85259 4.1185L7.78156 6.13863L8.27018 8.99104C8.28218 9.06111 8.27875 9.13295 8.26013 9.20156C8.2415 9.27016 8.20813 9.33388 8.16234 9.38826C8.11655 9.44263 8.05945 9.48637 7.99501 9.5164C7.93058 9.54644 7.86037 9.5624 7.78928 9.5625Z" fill="white"/>
</svg>
