<svg width="23" height="21" viewBox="0 0 23 21" fill="none" xmlns="http://www.w3.org/2000/svg">
<path d="M11.436 0.5C11.3596 0.5 11.2843 0.515665 11.2153 0.545898L11.1489 0.581055C11.0845 0.620807 11.0295 0.673362 10.9878 0.734375L10.9507 0.797852L10.9497 0.798828L8.22607 6.25879L8.10889 6.49316L7.8501 6.53027L1.76514 7.40527V7.40625C1.66466 7.42081 1.57031 7.46236 1.49365 7.52637C1.41715 7.59031 1.36103 7.67385 1.33057 7.7666C1.30774 7.83615 1.29966 7.90933 1.30713 7.98145L1.31982 8.05273C1.3375 8.12375 1.37016 8.19095 1.41553 8.24902L1.46533 8.30371L5.86963 12.5537L6.06006 12.7373L6.01514 12.999L4.97607 19C4.96966 19.0372 4.96746 19.0748 4.96924 19.1123L4.98682 19.2246C5.00698 19.2981 5.04314 19.3669 5.09326 19.4258C5.11822 19.4551 5.14648 19.4815 5.17725 19.5049L5.27783 19.5654C5.35069 19.599 5.42881 19.6151 5.50635 19.6152C5.57244 19.6151 5.63762 19.6042 5.69873 19.5811L5.7583 19.5547L5.75928 19.5537L11.2085 16.7207L11.4399 16.6016L11.6704 16.7207L17.1196 19.5537C17.2088 19.5995 17.3098 19.6197 17.4106 19.6123C17.5116 19.6048 17.6079 19.57 17.689 19.5117C17.7499 19.4678 17.8003 19.4119 17.8374 19.3486L17.8696 19.2832C17.9066 19.1933 17.918 19.0954 17.9019 19L16.8628 12.999L16.8179 12.7373L17.0083 12.5537L21.4126 8.30371C21.4662 8.2518 21.5074 8.18975 21.5347 8.12207L21.5571 8.05273C21.5747 7.9818 21.5778 7.90835 21.5649 7.83691L21.5464 7.7666C21.5235 7.69714 21.4865 7.63278 21.437 7.57812L21.3833 7.52637C21.3258 7.47845 21.2584 7.44276 21.186 7.42188L21.1118 7.40625L15.0229 6.53027L14.7632 6.49316L14.647 6.25879L11.9214 0.798828V0.797852C11.8885 0.731545 11.8412 0.67263 11.7837 0.625L11.7231 0.581055C11.6587 0.541318 11.5864 0.515274 11.5112 0.504883L11.436 0.5Z" stroke="#CFAE78"/>
</svg>
