<svg width="14" height="13" viewBox="0 0 14 13" fill="none" xmlns="http://www.w3.org/2000/svg">
<path d="M7 0.5C7.10206 0.5 7.18856 0.537772 7.24609 0.604492L7.29395 0.680664V0.682617L8.84082 4.22754L8.95996 4.50195L9.25781 4.52637L13.209 4.85156L13.2109 4.85254C13.4703 4.87258 13.5608 5.12667 13.4531 5.2959L13.3945 5.3623L10.3916 7.88965L10.1553 8.08887L10.2275 8.38867L11.1279 12.1406C11.1564 12.2604 11.111 12.3676 11.0107 12.4385C10.9221 12.5011 10.8082 12.5205 10.6963 12.4746L10.6484 12.4512L7.25293 10.4561L7.00098 10.3076L6.74707 10.4561L3.35254 12.4424L3.35156 12.4434C3.22479 12.5178 3.0905 12.5012 2.98926 12.4297C2.88927 12.3588 2.84374 12.2523 2.87207 12.1328L3.77246 8.38086L3.84473 8.08008L3.6084 7.88184L0.605469 5.35449V5.35352C0.441351 5.21505 0.477743 4.94676 0.6875 4.86621L0.789062 4.84375H0.791016L4.74219 4.51855L5.04004 4.49316L5.15918 4.21973L6.70508 0.683594L6.70605 0.680664C6.75517 0.567295 6.86382 0.5 7 0.5Z" stroke="#53504E" stroke-opacity="0.7"/>
</svg>
