<svg width="45" height="45" viewBox="0 0 45 45" fill="none" xmlns="http://www.w3.org/2000/svg">
<path fill-rule="evenodd" clip-rule="evenodd" d="M35 0C36.3261 0 37.5979 0.526784 38.5355 1.46447C39.4732 2.40215 40 3.67392 40 5V7.5H42.5C43.163 7.5 43.7989 7.76339 44.2678 8.23223C44.7366 8.70107 45 9.33696 45 10C45 10.663 44.7366 11.2989 44.2678 11.7678C43.7989 12.2366 43.163 12.5 42.5 12.5V40C43.163 40 43.7989 40.2634 44.2678 40.7322C44.7366 41.2011 45 41.837 45 42.5C45 43.163 44.7366 43.7989 44.2678 44.2678C43.7989 44.7366 43.163 45 42.5 45H26.25V33.75C26.25 32.7554 25.8549 31.8016 25.1517 31.0983C24.4484 30.3951 23.4946 30 22.5 30C21.5054 30 20.5516 30.3951 19.8483 31.0983C19.1451 31.8016 18.75 32.7554 18.75 33.75V45H2.5C1.83696 45 1.20107 44.7366 0.732233 44.2678C0.263392 43.7989 0 43.163 0 42.5C0 41.837 0.263392 41.2011 0.732233 40.7322C1.20107 40.2634 1.83696 40 2.5 40V12.5C1.83696 12.5 1.20107 12.2366 0.732233 11.7678C0.263392 11.2989 0 10.663 0 10C0 9.33696 0.263392 8.70107 0.732233 8.23223C1.20107 7.76339 1.83696 7.5 2.5 7.5H5V5C5 3.67392 5.52678 2.40215 6.46447 1.46447C7.40215 0.526784 8.67392 0 10 0H35ZM12.5 25C11.837 25 11.2011 25.2634 10.7322 25.7322C10.2634 26.2011 10 26.837 10 27.5V30C10 30.663 10.2634 31.2989 10.7322 31.7678C11.2011 32.2366 11.837 32.5 12.5 32.5C13.163 32.5 13.7989 32.2366 14.2678 31.7678C14.7366 31.2989 15 30.663 15 30V27.5C15 26.837 14.7366 26.2011 14.2678 25.7322C13.7989 25.2634 13.163 25 12.5 25ZM32.5 25C31.8877 25.0001 31.2967 25.2249 30.8391 25.6318C30.3815 26.0387 30.0891 26.5994 30.0175 27.2075L30 27.5V30C30.0007 30.6372 30.2447 31.2501 30.6821 31.7134C31.1195 32.1768 31.7174 32.4556 32.3535 32.4929C32.9896 32.5303 33.6159 32.3233 34.1046 31.9143C34.5932 31.5054 34.9072 30.9252 34.9825 30.2925L35 30V27.5C35 26.837 34.7366 26.2011 34.2678 25.7322C33.7989 25.2634 33.163 25 32.5 25ZM12.5 15C11.8877 15.0001 11.2967 15.2249 10.8391 15.6318C10.3815 16.0387 10.0891 16.5994 10.0175 17.2075L10 17.5V20C10.0007 20.6372 10.2447 21.2501 10.6821 21.7134C11.1195 22.1768 11.7174 22.4556 12.3535 22.4929C12.9896 22.5303 13.6159 22.3233 14.1046 21.9143C14.5932 21.5054 14.9072 20.9252 14.9825 20.2925L15 20V17.5C15 16.837 14.7366 16.2011 14.2678 15.7322C13.7989 15.2634 13.163 15 12.5 15ZM22.5 15C21.8877 15.0001 21.2967 15.2249 20.8391 15.6318C20.3815 16.0387 20.0891 16.5994 20.0175 17.2075L20 17.5V20C20.0007 20.6372 20.2447 21.2501 20.6821 21.7134C21.1195 22.1768 21.7174 22.4556 22.3535 22.4929C22.9896 22.5303 23.6159 22.3233 24.1046 21.9143C24.5932 21.5054 24.9072 20.9252 24.9825 20.2925L25 20V17.5C25 16.837 24.7366 16.2011 24.2678 15.7322C23.7989 15.2634 23.163 15 22.5 15ZM32.5 15C31.837 15 31.2011 15.2634 30.7322 15.7322C30.2634 16.2011 30 16.837 30 17.5V20C30 20.663 30.2634 21.2989 30.7322 21.7678C31.2011 22.2366 31.837 22.5 32.5 22.5C33.163 22.5 33.7989 22.2366 34.2678 21.7678C34.7366 21.2989 35 20.663 35 20V17.5C35 16.837 34.7366 16.2011 34.2678 15.7322C33.7989 15.2634 33.163 15 32.5 15ZM35 5H10V7.5H35V5Z" fill="url(#paint0_linear_62_1261)"/>
<defs>
<linearGradient id="paint0_linear_62_1261" x1="0" y1="22.5" x2="45" y2="22.5" gradientUnits="userSpaceOnUse">
<stop stop-color="#9D7C47"/>
<stop offset="1" stop-color="#372B19"/>
</linearGradient>
</defs>
</svg>
