<svg width="14" height="11" viewBox="0 0 14 11" fill="none" xmlns="http://www.w3.org/2000/svg">
<path d="M12.7273 8.55556H1.27273V1.22222H12.7273M12.7273 0H1.27273C0.935179 0 0.611456 0.128769 0.372773 0.357981C0.134091 0.587192 0 0.898069 0 1.22222V8.55556C0 8.87971 0.134091 9.19059 0.372773 9.4198C0.611456 9.64901 0.935179 9.77778 1.27273 9.77778H4.45455V11H9.54545V9.77778H12.7273C13.0648 9.77778 13.3885 9.64901 13.6272 9.4198C13.8659 9.19059 14 8.87971 14 8.55556V1.22222C14 0.898069 13.8659 0.587192 13.6272 0.357981C13.3885 0.128769 13.0648 0 12.7273 0Z" fill="#9D7C47"/>
</svg>
