<svg width="40" height="13" viewBox="0 0 40 13" fill="none" xmlns="http://www.w3.org/2000/svg">
<path d="M37.31 0.171875H34.7953C34.0351 0.171875 33.4503 0.405804 33.0994 1.16607L28.304 12.1023H31.6958C31.6958 12.1023 32.2806 10.6402 32.3976 10.2893C32.7485 10.2893 36.0819 10.2893 36.5497 10.2893C36.6667 10.6987 36.9591 12.0438 36.9591 12.0438H40.0001L37.31 0.171875ZM33.3333 7.83306C33.6257 7.13127 34.6199 4.49957 34.6199 4.49957C34.6199 4.55805 34.9123 3.79778 35.0292 3.3884L35.2632 4.44109C35.2632 4.44109 35.9064 7.30672 36.0234 7.89155H33.3333V7.83306Z" fill="#102B55"/>
<path d="M28.5362 8.18753C28.5362 10.6438 26.314 12.2813 22.8636 12.2813C21.4016 12.2813 19.998 11.9889 19.2378 11.638L19.7056 8.9478L20.115 9.12325C21.1677 9.5911 21.8694 9.76655 23.156 9.76655C24.0917 9.76655 25.0859 9.41566 25.0859 8.5969C25.0859 8.07056 24.6765 7.71967 23.3899 7.13485C22.1618 6.55002 20.5244 5.61431 20.5244 3.91832C20.5244 1.57902 22.8051 0 26.0215 0C27.2496 0 28.3023 0.233929 28.9456 0.526341L28.4777 3.09956L28.2438 2.86564C27.659 2.63171 26.8988 2.39778 25.7876 2.39778C24.5595 2.45626 23.9747 2.9826 23.9747 3.45046C23.9747 3.9768 24.6765 4.38618 25.7876 4.91252C27.659 5.78975 28.5362 6.78395 28.5362 8.18753Z" fill="#102B55"/>
<path d="M0 0.296429L0.0584807 0.0625H5.08782C5.78958 0.0625 6.31591 0.296429 6.49135 1.0567L7.60249 6.32011C6.49135 3.51296 3.9182 1.23215 0 0.296429Z" fill="#F9B50B"/>
<path d="M14.6771 0.167857L9.58923 12.0398H6.13888L3.21484 2.09778C5.32015 3.44287 7.07457 5.54823 7.71785 7.01029L8.06874 8.23842L11.2267 0.109375H14.6771V0.167857Z" fill="#102B55"/>
<path d="M16.0229 0.109375H19.2393L17.1925 12.0398H13.9761L16.0229 0.109375Z" fill="#102B55"/>
</svg>
