<svg width="18" height="13" viewBox="0 0 18 13" fill="none" xmlns="http://www.w3.org/2000/svg">
<path d="M11.7853 8.18424C11.0167 7.51764 10.0241 7.14943 8.99581 7.14943C7.96749 7.14943 6.97492 7.51764 6.20632 8.18424M14.0143 6.01104C12.6531 4.76905 10.8591 4.07813 8.99544 4.07812C7.13181 4.07813 5.3378 4.76905 3.97656 6.01104" stroke="#9D7C47" stroke-width="1.96875" stroke-linecap="square" stroke-linejoin="round"/>
<path d="M16 3.60382C14.0734 1.9268 11.5818 1 9 1C6.41819 1 3.92661 1.9268 2 3.60382" stroke="#9D7C47" stroke-width="1.96875" stroke-linecap="square" stroke-linejoin="round"/>
<path d="M10.6171 10.461L8.98611 12.2067L7.36719 10.461C7.56112 10.2223 7.80786 10.0294 8.08897 9.89679C8.37007 9.76419 8.67826 9.69531 8.99049 9.69531C9.30272 9.69531 9.61091 9.76419 9.89202 9.89679C10.1731 10.0294 10.4199 10.2223 10.6138 10.461H10.6171Z" fill="#9D7C47"/>
</svg>
