<svg width="14" height="14" viewBox="0 0 14 14" fill="none" xmlns="http://www.w3.org/2000/svg">
<path d="M12.6 0H1.4C0.6279 0 0 0.6258 0 1.3944V9.8056C0 10.5742 0.6279 11.2 1.4 11.2H3.5V14L7.9457 11.2H12.6C13.3721 11.2 14 10.5742 14 9.8056V1.3944C13.9985 1.02407 13.8504 0.66941 13.588 0.408069C13.3256 0.146728 12.9703 -2.96265e-06 12.6 0ZM4.8993 9.0993H3.5V7.7L7.371 3.8346L8.7696 5.2339L4.8993 9.0993ZM9.4297 4.5745L8.0304 3.1752L9.0972 2.1091L10.4965 3.5084L9.4297 4.5745Z" fill="#9D7C47"/>
</svg>
